<svg xmlns="http://www.w3.org/2000/svg" viewBox="0 0 2916 1548" width="100%" height="100%" preserveAspectRatio="xMidYMid meet">
  <g id="layer-dimensions" fill="#3a4fd6">
    <path id="dimensions-0001" d="M0,0 L10,0 L10,4 L3,3 L3,8 L9,10 L12,14 L11,20 L7,22 L0,22 L-2,20 L-2,17 L7,18 L7,13 L2,12 L-2,8 L-1,1 Z " transform="translate(2434,468)"/>
    <path id="dimensions-0002" d="M0,0 L5,1 L4,5 L5,9 L4,10 L3,20 L-1,21 L-2,17 L-2,11 L-4,7 L-1,3 Z " transform="translate(2487,468)"/>
    <path id="dimensions-0003" d="M0,0 L4,1 L3,6 L3,10 L2,11 L1,20 L-3,21 L-4,17 L-4,11 L-5,7 Z " transform="translate(2499,468)"/>
    <path id="dimensions-0004" d="M0,0 L3,0 L4,16 L2,22 L-1,21 L-1,1 Z " transform="translate(2523,468)"/>
    <path id="dimensions-0005" d="M0,0 L3,1 L3,21 L1,22 L-9,22 L-12,19 L-13,13 L-10,6 L-1,6 L-1,1 Z M-8,10 L-9,17 L-4,18 L-1,16 L-2,11 L-3,10 Z " transform="translate(2541,468)"/>
    <path id="dimensions-0006" d="M0,0 L3,1 L4,19 L3,21 L-1,20 L-1,2 Z " transform="translate(2589,468)"/>
    <path id="dimensions-0007" d="M0,0 L3,1 L2,3 L0,3 Z " transform="translate(2718,468)"/>
    <path id="dimensions-0008" d="M0,0 L3,0 L4,5 L11,6 L15,10 L15,21 L13,22 L11,21 L10,11 L5,10 L4,19 L3,21 L0,21 L-1,2 Z " transform="translate(2742,468)"/>
    <path id="dimensions-0009" d="M0,0 L3,3 L3,20 L1,22 L-10,22 L-14,15 L-12,9 L-10,6 L-2,6 Z M-7,10 L-10,13 L-9,17 L-3,18 L-2,17 L-2,11 Z " transform="translate(2800,468)"/>
    <path id="dimensions-0010" d="M0,0 L3,1 L4,5 L12,6 L15,9 L17,12 L21,6 L31,6 L34,9 L34,20 L32,22 L21,22 L17,16 L13,21 L12,22 L1,22 L-1,20 L-1,2 Z M6,10 L4,12 L4,17 L10,18 L12,16 L11,11 Z M24,10 L21,13 L22,17 L28,18 L29,17 L29,11 Z " transform="translate(2811,468)"/>
    <path id="dimensions-0011" d="M0,0 L5,1 L7,5 L5,7 L4,13 L7,14 L7,17 L4,18 L1,15 L-1,6 L-2,3 Z " transform="translate(2760,472)"/>
    <path id="dimensions-0012" d="M0,0 L7,0 L10,3 L9,6 L2,5 L1,10 L6,11 L9,10 L10,13 L7,16 L-1,16 L-5,10 L-4,4 Z " transform="translate(2453,474)"/>
    <path id="dimensions-0013" d="M0,0 L10,0 L13,2 L13,14 L11,16 L0,16 L-4,10 L-3,5 Z M3,4 L0,7 L1,11 L7,12 L8,11 L8,5 Z " transform="translate(2469,474)"/>
    <path id="dimensions-0014" d="M0,0 L7,0 L12,5 L12,11 L8,16 L0,16 L-4,12 L-4,3 Z M1,4 L0,11 L5,12 L8,10 L7,5 Z " transform="translate(2508,474)"/>
    <path id="dimensions-0015" d="M0,0 L11,0 L14,3 L16,6 L21,0 L28,0 L32,3 L33,11 L28,16 L20,16 L16,10 L12,15 L11,16 L3,17 L1,22 L-1,22 L-2,20 L-2,3 Z M5,4 L3,6 L3,11 L9,12 L11,8 L9,4 Z M22,4 L20,9 L23,12 L28,11 L28,5 L27,4 Z " transform="translate(2554,474)"/>
    <path id="dimensions-0016" d="M0,0 L7,0 L11,4 L16,0 L22,0 L22,3 L17,3 L18,5 L22,6 L25,9 L24,14 L20,16 L14,16 L13,12 L20,11 L11,8 L9,15 L7,16 L0,16 L-3,13 L-5,7 Z M2,3 L2,6 L6,5 L6,3 Z M2,9 L2,12 L7,11 L5,9 Z " transform="translate(2600,474)"/>
    <path id="dimensions-0017" d="M0,0 L7,0 L12,5 L12,12 L10,12 L8,16 L0,16 L-4,12 L-4,4 Z M1,4 L0,11 L5,12 L8,10 L7,5 Z " transform="translate(2637,474)"/>
    <path id="dimensions-0018" d="M0,0 L10,0 L14,6 L15,14 L11,15 L10,14 L8,5 L4,4 L3,15 L-1,14 L-1,2 Z " transform="translate(2652,474)"/>
    <path id="dimensions-0019" d="M0,0 L7,0 L12,5 L11,10 L9,15 L7,16 L1,16 L-3,14 L-4,12 L-4,5 Z M2,3 L1,6 L6,5 L5,3 Z M1,9 L1,12 L8,11 L5,9 Z " transform="translate(2703,474)"/>
    <path id="dimensions-0020" d="M0,0 L2,1 L3,10 L1,16 L-2,15 L-2,2 Z " transform="translate(2719,474)"/>
    <path id="dimensions-0021" d="M0,0 L11,0 L12,1 L12,18 L8,22 L3,23 L-2,21 L-2,18 L7,18 L7,16 L0,16 L-3,13 L-4,7 L-2,2 Z M1,4 L0,11 L5,12 L8,10 L7,5 L6,4 Z " transform="translate(2727,474)"/>
    <path id="dimensions-0022" d="M0,0 L8,0 L12,3 L13,7 L10,15 L8,16 L1,16 L-3,12 L-4,7 Z M4,3 L2,5 L7,6 L7,3 Z M2,9 L2,12 L8,12 L7,9 Z " transform="translate(2772,474)"/>
    <path id="dimensions-0023" d="M0,0 L7,0 L8,3 L4,5 L8,7 L9,14 L6,16 L0,16 L-2,15 L-2,12 L4,11 L0,9 L-2,7 L-1,1 Z " transform="translate(2850,474)"/>
    <path id="dimensions-0024" d="M0,0 L8,0 L12,3 L13,7 L10,15 L8,16 L1,16 L-4,10 L-3,5 Z M4,3 L2,5 L7,6 L7,3 Z M3,9 L1,11 L2,12 L8,12 L7,9 Z " transform="translate(2865,474)"/>
    <path id="dimensions-0025" d="M0,0 L6,0 L6,3 L1,3 L2,5 L6,6 L9,9 L8,14 L4,16 L-2,16 L-3,12 L4,11 L-2,8 L-3,7 L-3,2 Z " transform="translate(2883,474)"/>
    <path id="dimensions-0026" d="M0,0 L2,1 L2,6 L0,9 L-2,15 L-7,15 L-8,14 L-8,9 L-12,13 L-14,16 L-18,14 L-21,5 L-22,2 L-18,2 L-14,7 L-12,1 L-7,1 L-6,6 L-3,5 Z " transform="translate(2695,474)"/>
    <path id="dimensions-0027" d="M0,0 L9,1 L14,6 L16,9 L16,15 L10,22 L8,23 L-2,23 L-3,22 L-3,2 Z M3,4 L1,6 L1,18 L2,19 L9,18 L12,14 L11,9 L8,5 Z " transform="translate(2435,506)"/>
    <path id="dimensions-0028" d="M0,0 L3,0 L4,5 L11,7 L15,13 L15,20 L11,21 L10,20 L8,11 L5,10 L3,21 L0,21 L-1,20 L-1,1 Z " transform="translate(2508,507)"/>
    <path id="dimensions-0029" d="M0,0 L7,1 L8,4 L3,6 L2,22 L-1,22 L-2,21 L-2,5 L-7,4 L-7,1 Z " transform="translate(2563,506)"/>
    <path id="dimensions-0030" d="M0,0 L3,1 L3,11 L8,8 L12,6 L11,11 L10,15 L13,18 L13,21 L8,20 L7,18 L4,17 L3,21 L0,21 L-1,2 Z " transform="translate(2607,507)"/>
    <path id="dimensions-0031" d="M0,0 L7,1 L7,4 L3,6 L2,22 L-1,22 L-2,21 L-2,5 L-7,4 L-7,1 Z " transform="translate(2635,506)"/>
    <path id="dimensions-0032" d="M0,0 L3,0 L3,4 L1,4 L-1,10 L-1,19 L3,24 L3,28 L-1,27 L-7,19 L-7,10 L-3,3 Z " transform="translate(2703,507)"/>
    <path id="dimensions-0033" d="M0,0 L3,1 L2,3 L0,3 Z " transform="translate(2760,507)"/>
    <path id="dimensions-0034" d="M0,0 L3,1 L3,3 L0,3 Z " transform="translate(2793,507)"/>
    <path id="dimensions-0035" d="M0,0 L3,0 L4,10 L4,19 L3,21 L-1,20 L-1,2 Z " transform="translate(2799,507)"/>
    <path id="dimensions-0036" d="M0,0 L5,1 L10,8 L10,20 L7,25 L4,28 L0,27 L2,23 L4,21 L5,12 L3,6 L0,3 Z " transform="translate(2835,507)"/>
    <path id="dimensions-0037" d="M0,0 L4,3 L3,7 L3,14 L4,18 L1,19 L-2,16 L-3,8 L-4,3 Z " transform="translate(2527,510)"/>
    <path id="dimensions-0038" d="M0,0 L7,0 L12,5 L12,11 L8,16 L0,16 L-4,13 L-4,5 Z M1,4 L0,11 L5,12 L8,10 L7,5 Z " transform="translate(2457,513)"/>
    <path id="dimensions-0039" d="M0,0 L8,0 L12,1 L12,16 L10,21 L8,22 L-1,22 L-3,19 L2,18 L5,18 L6,16 L0,16 L-3,13 L-3,11 L-5,11 L-6,15 L-9,16 L-17,16 L-20,14 L-21,11 L-21,2 L-17,1 L-16,11 L-11,11 L-10,2 L-6,2 L-4,5 Z M2,4 L0,7 L1,11 L5,12 L7,11 L6,4 Z " transform="translate(2492,513)"/>
    <path id="dimensions-0040" d="M0,0 L10,0 L14,2 L16,0 L26,0 L30,5 L30,15 L27,15 L26,14 L25,5 L20,4 L18,15 L13,14 L11,16 L0,16 L-4,10 L-3,4 Z M3,4 L0,7 L1,11 L7,12 L8,11 L8,5 Z " transform="translate(2574,513)"/>
    <path id="dimensions-0041" d="M0,0 L7,0 L8,3 L4,4 L3,13 L2,15 L-2,14 L-2,2 Z " transform="translate(2644,513)"/>
    <path id="dimensions-0042" d="M0,0 L11,0 L12,1 L12,15 L11,16 L0,16 L-4,12 L-4,4 Z M1,4 L0,11 L5,12 L8,10 L7,5 L6,4 Z " transform="translate(2658,513)"/>
    <path id="dimensions-0043" d="M0,0 L11,0 L14,3 L15,10 L12,15 L11,16 L3,17 L1,22 L-1,22 L-2,15 L-1,1 Z M5,4 L3,6 L3,11 L9,12 L11,8 L9,4 Z " transform="translate(2674,513)"/>
    <path id="dimensions-0044" d="M0,0 L7,0 L11,3 L12,11 L7,16 L-1,16 L-5,11 L-5,5 Z M1,4 L-1,9 L2,12 L7,11 L7,5 L6,4 Z " transform="translate(2713,513)"/>
    <path id="dimensions-0045" d="M0,0 L7,0 L8,3 L4,4 L3,13 L2,15 L-2,14 L-2,6 Z " transform="translate(2728,513)"/>
    <path id="dimensions-0046" d="M0,0 L6,0 L6,3 L1,3 L2,5 L6,6 L9,9 L8,14 L4,16 L-2,16 L-3,12 L4,11 L-2,8 L-4,4 Z " transform="translate(2748,513)"/>
    <path id="dimensions-0047" d="M0,0 L2,1 L3,13 L0,16 L-2,14 L-2,2 Z " transform="translate(2761,513)"/>
    <path id="dimensions-0048" d="M0,0 L19,0 L23,4 L23,15 L21,16 L19,15 L19,4 L14,4 L13,13 L12,15 L8,14 L7,4 L4,4 L2,15 L-1,15 L-2,8 L-2,2 Z " transform="translate(2767,513)"/>
    <path id="dimensions-0049" d="M0,0 L10,0 L13,2 L13,14 L11,16 L0,16 L-4,10 L-3,5 Z M3,4 L0,7 L1,11 L7,12 L8,11 L8,5 Z " transform="translate(2808,513)"/>
    <path id="dimensions-0050" d="M0,0 L6,0 L6,3 L3,8 L1,15 L-2,15 L-3,12 L-2,1 Z " transform="translate(2826,513)"/>
    <path id="dimensions-0051" d="M0,0 L3,0 L4,6 L8,6 L9,1 L13,1 L11,8 L6,20 L2,20 L2,11 L-1,5 Z " transform="translate(2535,514)"/>
    <path id="dimensions-0052" d="M0,0 L3,0 L4,3 L4,13 L0,14 Z " transform="translate(2793,514)"/>
    <path id="dimensions-0053" d="M0,0 L10,0 L12,4 L11,10 L4,16 L4,17 L12,18 L12,21 L10,22 L-1,22 L-2,21 L-2,16 L3,11 L7,7 L7,5 L0,5 L-1,1 Z " transform="translate(2434,546)"/>
    <path id="dimensions-0054" d="M0,0 L4,1 L6,18 L3,21 L0,21 L-1,19 L-8,17 L-9,13 L-2,3 Z M-2,10 L-1,13 L0,10 Z " transform="translate(2463,546)"/>
    <path id="dimensions-0055" d="M0,0 L3,0 L3,4 L1,4 L-1,10 L-1,19 L3,24 L3,28 L-1,27 L-7,19 L-7,10 L-3,3 Z " transform="translate(2532,546)"/>
    <path id="dimensions-0056" d="M0,0 L8,0 L11,3 L11,19 L7,22 L0,22 L-4,16 L-2,2 Z M3,3 L2,7 L6,8 L7,4 Z M2,13 L1,17 L6,18 L7,13 Z " transform="translate(2542,546)"/>
    <path id="dimensions-0057" d="M0,0 L5,1 L4,5 L8,6 L9,3 L12,3 L15,8 L13,11 L13,17 L15,21 L12,22 L8,19 L7,10 L4,10 L3,20 L-1,21 L-2,17 L-2,11 L-4,7 L-1,3 Z " transform="translate(2565,546)"/>
    <path id="dimensions-0058" d="M0,0 L5,1 L10,8 L10,20 L7,25 L4,28 L0,27 L2,23 L4,21 L5,12 L3,6 L0,3 Z " transform="translate(2583,546)"/>
    <path id="dimensions-0059" d="M0,0 L8,0 L12,4 L11,12 L12,13 L12,18 L7,22 L1,22 L-3,19 L-4,13 L-3,8 L-4,6 L-1,1 Z M1,4 L1,7 L6,8 L8,5 L7,4 Z M1,13 L0,17 L1,18 L7,18 L8,14 L7,13 Z " transform="translate(2700,546)"/>
    <path id="dimensions-0060" d="M0,0 L3,0 L3,21 L1,22 L-1,21 L-1,13 L-9,13 L-9,19 L-10,21 L-16,20 L-21,21 L-22,10 L-26,11 L-27,21 L-31,21 L-33,11 L-37,11 L-39,21 L-43,20 L-43,9 L-41,6 L-21,6 L-17,11 L-16,16 L-15,14 L-14,2 L-10,1 L-9,4 L-10,8 L-2,8 L-1,1 Z " transform="translate(2514,546)"/>
    <path id="dimensions-0061" d="M0,0 L11,0 L14,3 L15,10 L12,15 L11,16 L3,17 L1,22 L-1,22 L-2,20 L-2,3 Z M5,4 L3,6 L3,11 L9,12 L11,8 L9,4 Z " transform="translate(2602,552)"/>
    <path id="dimensions-0062" d="M0,0 L4,0 L5,10 L10,5 L17,5 L22,11 L20,17 L19,20 L17,21 L10,21 L5,16 L3,20 L-1,18 L-1,16 L-7,21 L-15,21 L-19,15 L-18,9 L-14,5 L-7,5 L-1,10 Z M12,8 L12,11 L16,10 L16,8 Z M-12,9 L-14,11 L-13,16 L-9,17 L-7,15 L-8,9 Z M12,14 L12,17 L17,16 L15,14 Z " transform="translate(2638,547)"/>
    <path id="dimensions-0063" d="M0,0 L7,0 L8,3 L4,5 L8,7 L9,14 L6,16 L-1,16 L-2,12 L4,11 L0,9 L-2,7 L-1,1 Z " transform="translate(2664,552)"/>
    <path id="dimensions-0064" d="M0,0 L4,2 L8,2 L13,1 L11,6 L12,11 L13,15 L8,14 L4,13 L4,15 L1,16 L-1,13 L2,10 L1,5 Z " transform="translate(2682,552)"/>
    <path id="dimensions-0065" d="M0,0 L3,1 L4,6 L4,16 L11,19 L10,21 L7,22 L-5,22 L-6,18 L-1,16 L-2,8 L-4,6 L-3,2 Z " transform="translate(2438,582)"/>
    <path id="dimensions-0066" d="M0,0 L9,0 L12,3 L12,9 L5,15 L4,18 L12,18 L11,22 L-1,22 L-6,20 L-1,15 L7,8 L8,4 L0,4 L-1,2 Z " transform="translate(2457,582)"/>
    <path id="dimensions-0067" d="M0,0 L3,0 L3,4 L1,4 L-1,10 L-1,19 L3,24 L3,28 L-1,27 L-7,19 L-7,10 L-3,3 Z " transform="translate(2532,582)"/>
    <path id="dimensions-0068" d="M0,0 L4,1 L6,18 L4,21 L0,21 L-1,19 L-8,17 L-9,13 L-2,3 Z M-2,10 L-1,13 L0,10 Z " transform="translate(2547,582)"/>
    <path id="dimensions-0069" d="M0,0 L5,1 L4,5 L8,6 L9,3 L12,3 L15,8 L13,11 L13,17 L15,21 L12,22 L8,19 L7,10 L4,10 L3,20 L-1,21 L-2,17 L-2,11 L-4,7 L-1,3 Z " transform="translate(2565,582)"/>
    <path id="dimensions-0070" d="M0,0 L5,1 L10,8 L10,20 L7,25 L4,28 L0,27 L2,23 L4,21 L5,12 L3,6 L0,3 Z " transform="translate(2583,582)"/>
    <path id="dimensions-0071" d="M0,0 L8,0 L12,4 L11,12 L12,13 L12,18 L7,22 L1,22 L-3,19 L-4,13 L-3,8 L-4,6 L-1,1 Z M1,4 L1,7 L6,8 L8,5 L7,4 Z M1,13 L0,17 L1,18 L7,18 L8,14 L7,13 Z " transform="translate(2700,582)"/>
    <path id="dimensions-0072" d="M0,0 L4,1 L5,3 L138,3 L163,4 L162,8 L131,9 L109,14 L95,17 L85,19 L73,21 L67,23 L57,25 L45,27 L38,29 L17,33 L-8,39 L-16,41 L-26,42 L-29,44 L-42,46 L-60,50 L-70,52 L-82,54 L-88,56 L-98,58 L-113,61 L-141,67 L-169,73 L-197,79 L-209,81 L-215,83 L-225,85 L-237,87 L-244,89 L-265,93 L-286,98 L-307,102 L-328,107 L-349,111 L-356,113 L-366,115 L-378,117 L-384,119 L-394,121 L-409,124 L-437,130 L-465,136 L-493,142 L-511,146 L-521,148 L-533,150 L-539,152 L-549,154 L-561,156 L-568,158 L-576,158 L-578,163 L-585,164 L-593,164 L-595,162 L-594,157 L-586,154 L-579,152 L-578,153 L-570,153 L-556,150 L-542,147 L-528,144 L-514,141 L-507,139 L-495,137 L-478,133 L-453,128 L-436,124 L-411,119 L-396,116 L-386,114 L-380,112 L-368,110 L-359,108 L-352,106 L-340,104 L-323,100 L-298,95 L-281,91 L-255,86 L-245,84 L-239,82 L-227,80 L-218,78 L-204,75 L-197,73 L-185,71 L-168,67 L-143,62 L-126,58 L-100,53 L-91,51 L-77,48 L-70,46 L-58,44 L-48,42 L-30,37 L-16,35 L-11,33 L-2,32 L15,28 L40,23 L55,20 L64,18 L78,15 L106,9 L101,8 L6,8 L3,11 L-4,10 L-13,8 L-14,5 L-10,2 Z " transform="translate(2264,587)"/>
    <path id="dimensions-0073" d="M0,0 L3,0 L3,21 L1,22 L-1,21 L-1,13 L-9,13 L-9,19 L-10,21 L-16,20 L-21,21 L-22,10 L-26,11 L-27,21 L-31,21 L-33,11 L-37,11 L-39,21 L-43,20 L-43,10 L-41,6 L-21,6 L-17,11 L-16,16 L-15,14 L-14,2 L-10,1 L-9,4 L-10,8 L-2,8 L-1,1 Z " transform="translate(2514,582)"/>
    <path id="dimensions-0074" d="M0,0 L11,0 L14,3 L15,10 L12,15 L11,16 L3,17 L1,22 L-1,22 L-2,20 L-2,3 Z M5,4 L3,6 L3,11 L9,12 L11,8 L9,4 Z " transform="translate(2602,588)"/>
    <path id="dimensions-0075" d="M0,0 L4,0 L5,10 L10,5 L17,5 L22,11 L20,17 L19,20 L17,21 L10,21 L5,16 L3,20 L-1,18 L-1,16 L-7,21 L-15,21 L-19,15 L-18,9 L-14,5 L-7,5 L-1,10 Z M12,8 L12,11 L16,10 L16,8 Z M-12,9 L-14,11 L-13,16 L-9,17 L-7,15 L-8,9 Z M12,14 L12,17 L17,16 L15,14 Z " transform="translate(2638,583)"/>
    <path id="dimensions-0076" d="M0,0 L7,0 L8,3 L4,5 L8,7 L9,14 L6,16 L-1,16 L-2,12 L4,11 L0,9 L-2,7 L-1,1 Z " transform="translate(2664,588)"/>
    <path id="dimensions-0077" d="M0,0 L4,2 L8,2 L13,1 L11,6 L12,11 L13,15 L8,14 L4,13 L4,15 L1,16 L-1,13 L2,10 L1,5 Z " transform="translate(2682,588)"/>
  </g>
</svg>
