<svg xmlns="http://www.w3.org/2000/svg" viewBox="0 0 2832 1209" width="100%" height="100%" preserveAspectRatio="xMidYMid meet">
  <g id="layer-dimensions" fill="#3a4fd6">
    <path id="dimensions-0001" d="M0,0 L3,1 L5,9 L7,12 L1934,12 L1935,3 L1938,1 L1940,3 L1941,7 L1944,10 L1945,16 L1940,19 L1940,216 L1936,217 L1935,215 L1935,28 L1933,22 L1932,18 L4,18 L3,217 L0,217 L-1,215 L-2,21 L-7,17 L-6,13 L-2,12 L-1,2 Z " transform="translate(456,37)"/>
    <path id="dimensions-0002" d="M0,0 L4,0 L6,5 L196,5 L204,6 L203,10 L10,11 L9,13 L5,13 L5,585 L7,589 L6,594 L4,596 L0,595 L-2,590 L-4,591 L-11,591 L-13,590 L-12,586 L-4,584 L-1,582 L-1,11 L-10,10 L-11,6 L-5,3 Z " transform="translate(215,346)"/>
  </g>
</svg>
