<svg xmlns="http://www.w3.org/2000/svg" viewBox="0 0 2775 1629" width="100%" height="100%" preserveAspectRatio="xMidYMid meet">
  <g id="layer-linework" fill="#1a1a1a">
    <path id="linework-0001" d="M0,0 L1,0 L1,7 L-375,7 L-375,335 L-374,338 L294,338 L294,259 L289,257 L286,254 L286,224 L287,220 L273,219 L274,254 L271,258 L197,258 L193,254 L194,196 L194,160 L193,90 L197,85 L293,85 L294,84 L294,7 L284,6 L284,0 L553,0 L553,6 L300,6 L300,86 L306,85 L363,85 L366,90 L366,116 L370,112 L375,113 L374,118 L367,124 L366,254 L364,258 L300,258 L301,338 L969,338 L969,7 L837,6 L837,1 L1107,1 L1107,6 L975,6 L976,338 L1644,338 L1644,259 L1580,258 L1577,255 L1577,89 L1580,85 L1643,85 L1644,84 L1644,7 L1390,6 L1390,0 L1660,0 L1660,6 L1650,6 L1650,86 L1665,84 L1668,85 L1747,85 L1750,91 L1749,121 L1754,117 L1758,118 L1758,123 L1750,130 L1750,254 L1747,258 L1673,258 L1669,254 L1670,221 L1669,220 L1657,220 L1657,247 L1658,253 L1654,258 L1650,258 L1651,338 L2113,338 L2115,339 L2114,343 L1644,344 L294,344 L-379,343 L-380,342 L-380,2 L-379,1 Z M211,92 L209,94 L207,101 L201,101 L200,108 L200,126 L203,133 L206,137 L207,143 L201,140 L200,147 L200,212 L202,215 L205,211 L206,208 L209,207 L209,213 L206,218 L206,221 L201,221 L200,228 L200,242 L208,245 L209,252 L265,252 L268,248 L268,220 L267,219 L251,218 L250,204 L248,193 L248,176 L251,152 L253,148 L254,131 L293,130 L295,128 L295,112 L293,111 L260,110 L258,102 L261,93 Z M301,92 L300,97 L302,103 L301,110 L299,115 L299,127 L300,130 L307,132 L308,149 L311,157 L312,178 L313,182 L313,189 L312,191 L311,210 L310,217 L309,218 L300,219 L299,223 L299,250 L301,253 L352,252 L353,245 L361,242 L361,100 L353,101 L352,94 L351,93 Z M1594,92 L1592,94 L1590,101 L1584,101 L1584,124 L1589,130 L1591,137 L1586,135 L1584,134 L1584,211 L1586,210 L1590,202 L1593,202 L1592,208 L1588,215 L1584,215 L1584,243 L1586,244 L1591,245 L1592,252 L1644,252 L1645,251 L1645,220 L1644,219 L1635,218 L1634,217 L1633,201 L1631,190 L1631,179 L1633,166 L1634,153 L1636,149 L1637,131 L1644,129 L1645,128 L1645,112 L1643,110 L1642,101 L1644,93 Z M1682,93 L1684,97 L1685,106 L1684,110 L1650,111 L1649,115 L1649,127 L1650,130 L1690,131 L1691,147 L1694,156 L1695,174 L1696,179 L1696,190 L1695,195 L1694,213 L1692,218 L1677,219 L1676,224 L1676,247 L1679,252 L1683,253 L1735,252 L1736,245 L1744,242 L1744,101 L1737,101 L1734,93 Z M270,100 L265,102 L267,106 L293,106 L295,103 L291,100 Z M1653,100 L1649,104 L1650,106 L1676,106 L1678,105 L1678,102 L1674,100 Z M258,135 L257,139 L258,148 L261,149 L301,148 L303,146 L303,136 L301,135 Z M1641,135 L1641,148 L1643,149 L1685,148 L1687,143 L1687,137 L1685,135 Z M256,154 L255,155 L253,175 L253,181 L307,181 L307,157 L304,154 Z M1639,154 L1638,155 L1636,180 L1641,182 L1690,181 L1691,177 L1690,156 L1687,154 Z M254,189 L252,192 L253,194 L255,214 L303,214 L307,211 L307,190 L306,189 Z M1637,189 L1636,192 L1638,213 L1639,214 L1686,214 L1690,212 L1691,190 L1690,189 Z M293,220 L293,247 L295,249 L295,220 Z M1650,220 L1650,249 L1651,249 L1651,220 Z " transform="translate(415,102)"/>
    <path id="linework-0002" d="M0,0 L271,0 L271,7 L0,6 Z " transform="translate(2082,102)"/>
    <path id="linework-0003" d="M0,0 L203,1 L203,6 L0,7 Z " transform="translate(2358,102)"/>
    <path id="linework-0004" d="M0,0 L1,0 L1,7 L-270,6 L-270,1 Z " transform="translate(691,102)"/>
    <path id="linework-0005" d="M0,0 L1,0 L1,6 L-269,6 L-269,1 Z " transform="translate(1245,102)"/>
    <path id="linework-0006" d="M0,0 L271,0 L270,5 L0,5 Z " transform="translate(1528,103)"/>
    <path id="linework-0007" d="M0,0 L6,0 L7,1 L8,337 L6,342 L1,343 L1,337 L2,336 L2,6 L0,4 Z " transform="translate(2732,103)"/>
    <path id="linework-0008" d="M0,0 L2,1 L82,1 L86,7 L86,37 L88,37 L90,33 L94,34 L94,39 L87,45 L87,146 L91,145 L100,153 L99,158 L94,157 L89,153 L87,150 L86,169 L84,174 L8,174 L6,172 L5,136 L-7,135 L-7,170 L-9,174 L-84,174 L-87,171 L-87,5 L-83,1 L-4,1 Z M-70,9 L-73,15 L-75,17 L-80,18 L-80,159 L-72,161 L-71,168 L-15,168 L-12,164 L-12,136 L-13,135 L-29,134 L-32,116 L-32,83 L-29,66 L-27,63 L-26,47 L-22,46 L26,46 L27,63 L30,72 L32,100 L30,128 L28,134 L14,135 L12,136 L12,162 L14,168 L17,169 L71,168 L72,161 L73,160 L80,160 L80,17 L73,17 L71,9 L18,9 L20,13 L22,19 L20,25 L13,27 L-20,26 L-23,22 L-23,15 L-20,11 L-20,9 Z M-10,16 L-15,18 L-13,22 L10,22 L14,21 L13,17 L10,16 Z M-22,51 L-23,55 L-22,64 L-19,65 L20,64 L22,62 L22,52 L20,51 Z M-25,70 L-28,87 L-28,97 L-25,98 L26,97 L27,96 L27,81 L25,72 L23,70 Z M-28,105 L-28,113 L-26,128 L-25,130 L22,130 L25,128 L27,118 L27,106 L26,105 Z " transform="translate(419,186)"/>
    <path id="linework-0009" d="M0,0 L5,1 L84,1 L88,6 L87,13 L87,36 L94,33 L96,37 L89,45 L87,48 L87,145 L93,146 L101,153 L100,158 L96,157 L88,151 L87,152 L87,162 L88,170 L84,174 L10,174 L7,171 L8,137 L7,136 L-6,136 L-5,170 L-9,174 L-83,174 L-84,173 L-84,3 L-82,1 L-1,1 Z M-69,8 L-71,10 L-72,17 L-79,16 L-79,39 L-76,44 L-74,44 L-73,53 L-76,52 L-79,49 L-79,127 L-76,124 L-73,118 L-69,117 L-71,125 L-74,130 L-74,132 L-79,131 L-79,160 L-73,160 L-71,164 L-71,168 L-15,168 L-12,165 L-12,136 L-13,135 L-28,134 L-29,132 L-30,113 L-32,105 L-32,98 L-30,87 L-29,70 L-27,66 L-26,46 L27,47 L28,50 L29,67 L31,71 L33,91 L33,110 L32,114 L31,131 L30,134 L14,135 L13,139 L14,166 L18,169 L72,168 L73,161 L74,160 L81,159 L81,18 L79,17 L74,17 L71,9 L21,9 L22,14 L22,23 L21,26 L-20,26 L-20,12 L-17,11 L-17,9 Z M-10,16 L-14,20 L-13,22 L13,22 L16,20 L16,18 L11,16 Z M-20,51 L-22,52 L-22,63 L-21,64 L23,64 L24,63 L24,52 L23,51 Z M-21,69 L-25,71 L-26,97 L-22,98 L28,97 L27,72 L25,70 Z M-25,105 L-26,106 L-25,129 L-22,130 L25,130 L27,128 L28,106 L27,105 Z " transform="translate(971,186)"/>
    <path id="linework-0010" d="M0,0 L165,0 L169,4 L170,8 L169,170 L166,173 L91,173 L89,166 L89,135 L77,135 L76,172 L74,173 L-2,173 L-3,172 L-3,3 Z M12,7 L9,16 L4,17 L3,14 L2,14 L2,43 L9,53 L9,58 L6,57 L2,53 L2,132 L5,130 L8,124 L12,122 L11,129 L7,135 L7,137 L2,135 L2,160 L9,159 L10,160 L11,167 L14,168 L68,167 L69,166 L70,157 L70,136 L68,134 L54,133 L52,127 L51,105 L50,98 L51,95 L52,71 L55,62 L56,47 L58,45 L109,45 L110,64 L112,68 L114,81 L115,93 L115,106 L112,130 L111,133 L95,134 L94,137 L95,165 L99,168 L153,167 L154,160 L162,158 L162,17 L156,15 L154,13 L153,8 L102,8 L104,13 L105,14 L105,21 L102,25 L67,26 L61,25 L61,13 L64,10 L64,8 Z M71,15 L68,17 L68,20 L70,21 L94,21 L97,19 L97,17 L92,15 Z M62,50 L60,54 L60,60 L62,63 L104,63 L105,62 L105,51 L104,50 Z M60,68 L56,73 L56,96 L59,97 L110,96 L111,92 L108,71 L106,69 Z M56,104 L55,108 L56,123 L58,128 L59,129 L106,129 L108,127 L110,111 L111,105 L110,104 Z " transform="translate(1166,187)"/>
    <path id="linework-0011" d="M0,0 L164,0 L169,6 L169,33 L170,35 L173,32 L177,33 L177,38 L170,44 L169,46 L169,145 L174,145 L182,151 L182,156 L179,157 L171,151 L171,149 L169,149 L169,167 L167,173 L90,173 L89,172 L88,135 L76,134 L76,168 L74,173 L-2,173 L-4,171 L-4,4 Z M12,8 L9,15 L2,18 L2,157 L10,160 L11,165 L11,167 L67,167 L70,164 L71,136 L69,134 L54,133 L52,125 L51,119 L51,77 L55,62 L56,45 L106,45 L108,46 L109,61 L113,73 L114,85 L114,113 L112,128 L111,134 L96,134 L94,135 L94,161 L97,167 L100,168 L153,167 L154,160 L162,158 L163,126 L162,17 L155,15 L153,8 L101,8 L103,12 L105,18 L103,23 L101,25 L63,25 L60,22 L60,13 L63,10 L63,8 Z M72,15 L68,17 L70,21 L93,21 L96,19 L95,16 L92,15 Z M61,50 L60,51 L60,61 L63,64 L103,63 L104,62 L104,51 L103,50 Z M58,69 L55,81 L55,96 L58,97 L109,96 L110,95 L110,84 L108,72 L106,69 Z M55,104 L54,108 L57,127 L58,129 L105,129 L108,126 L110,113 L110,105 L109,104 Z " transform="translate(1443,187)"/>
    <path id="linework-0012" d="M0,0 L5,1 L85,1 L88,4 L89,7 L89,31 L93,28 L97,28 L98,32 L93,37 L90,40 L90,141 L94,140 L103,147 L102,152 L97,151 L92,147 L91,143 L89,143 L89,169 L87,174 L12,174 L9,171 L8,136 L-4,135 L-4,171 L-6,174 L-80,174 L-84,170 L-84,5 L-80,1 L-2,1 Z M-66,8 L-68,10 L-70,16 L-77,19 L-77,44 L-74,49 L-71,53 L-71,58 L-76,56 L-77,57 L-77,129 L-74,129 L-72,123 L-68,123 L-68,129 L-72,136 L-76,137 L-77,139 L-77,158 L-69,161 L-68,168 L-12,168 L-9,164 L-9,136 L-10,135 L-26,134 L-29,113 L-29,87 L-26,67 L-24,63 L-23,47 L-19,46 L27,46 L30,49 L31,65 L33,70 L34,77 L35,105 L33,131 L31,134 L17,135 L16,136 L16,166 L21,169 L75,168 L76,161 L81,160 L84,159 L84,16 L76,17 L74,9 L23,8 L21,9 L23,13 L25,19 L23,26 L16,27 L-17,26 L-20,21 L-19,15 L-17,12 L-17,9 Z M-7,16 L-12,18 L-10,22 L16,22 L18,19 L13,16 Z M-19,51 L-20,55 L-19,64 L-16,65 L24,64 L25,62 L25,52 L23,51 Z M-21,70 L-23,74 L-25,91 L-25,97 L-22,98 L30,97 L30,76 L27,70 Z M-24,105 L-25,110 L-24,114 L-23,127 L-22,130 L26,130 L29,127 L30,122 L30,106 L29,105 Z " transform="translate(1799,186)"/>
    <path id="linework-0013" d="M0,0 L3,1 L82,1 L86,5 L86,170 L82,174 L8,174 L6,171 L6,136 L-6,136 L-7,171 L-10,174 L-85,174 L-86,173 L-86,4 L-83,1 L-3,1 Z M-71,8 L-74,17 L-81,16 L-81,44 L-76,51 L-74,55 L-74,58 L-78,57 L-81,54 L-81,134 L-78,130 L-75,124 L-71,123 L-72,129 L-77,137 L-81,136 L-81,160 L-73,160 L-73,168 L-69,169 L-16,168 L-14,166 L-14,136 L-15,135 L-31,134 L-32,110 L-34,100 L-32,91 L-31,70 L-29,66 L-28,49 L-25,46 L25,47 L26,49 L27,66 L29,70 L32,99 L31,113 L29,131 L28,134 L12,135 L11,138 L12,166 L16,169 L70,168 L71,161 L72,160 L79,159 L79,18 L72,16 L69,9 L19,9 L22,18 L21,22 L19,26 L-15,27 L-22,25 L-22,14 L-19,11 L-19,9 Z M-12,16 L-16,20 L-15,22 L11,22 L14,20 L14,18 L9,16 Z M-22,51 L-24,55 L-23,63 L-22,64 L21,64 L22,63 L22,52 L21,51 Z M-23,69 L-27,72 L-28,96 L-24,98 L26,97 L27,92 L25,72 L23,70 Z M-27,105 L-28,110 L-27,128 L-24,130 L23,130 L25,128 L26,114 L27,106 L26,105 Z " transform="translate(2356,186)"/>
    <path id="linework-0014" d="M0,0 L10,0 L14,2 L14,6 L0,6 L-1,1 Z " transform="translate(835,198)"/>
    <path id="linework-0015" d="M0,0 L9,0 L14,2 L13,6 L-1,6 L-1,1 Z " transform="translate(1942,198)"/>
    <path id="linework-0016" d="M0,0 L5,0 L7,4 L3,7 L-3,9 L-7,10 L-8,9 L-8,4 L-6,2 Z " transform="translate(811,200)"/>
    <path id="linework-0017" d="M0,0 L5,0 L6,5 L3,7 L-3,9 L-4,11 L49,11 L55,15 L60,21 L61,30 L65,33 L66,36 L66,56 L71,56 L72,58 L72,90 L71,92 L67,93 L66,97 L66,113 L65,116 L60,118 L51,128 L49,128 L48,140 L43,148 L30,150 L29,149 L29,144 L14,144 L11,149 L0,148 L-3,145 L-5,138 L-6,128 L-14,121 L-19,116 L-21,114 L-22,95 L-28,91 L-28,58 L-25,55 L-22,54 L-21,33 L-18,31 L-16,21 L-12,15 L-7,12 L-5,12 L-5,10 L-9,8 L-8,4 L-6,2 Z M-3,16 L-10,21 L-12,25 L-12,113 L-7,121 L-2,123 L45,123 L52,120 L55,116 L55,23 L50,18 L46,16 Z M-22,61 L-24,64 L-23,85 L-21,87 L-17,86 L-17,62 Z M61,61 L60,62 L60,85 L61,87 L66,87 L67,85 L67,62 L66,61 Z M1,129 L0,134 L3,138 L41,138 L43,136 L43,130 L42,129 Z " transform="translate(1918,200)"/>
    <path id="linework-0018" d="M0,0 L7,0 L14,3 L13,7 L1,7 L-2,4 Z " transform="translate(559,203)"/>
    <path id="linework-0019" d="M0,0 L9,1 L13,3 L12,7 L1,7 L-2,6 L-3,3 Z " transform="translate(1113,203)"/>
    <path id="linework-0020" d="M0,0 L10,1 L13,3 L13,7 L0,7 L-2,5 L-1,1 Z " transform="translate(1666,203)"/>
    <path id="linework-0021" d="M0,0 L9,1 L12,2 L13,5 L12,7 L0,7 L-3,5 L-2,1 Z " transform="translate(2220,203)"/>
    <path id="linework-0022" d="M0,0 L5,2 L4,6 L-6,10 L-10,9 L-9,4 Z " transform="translate(536,205)"/>
    <path id="linework-0023" d="M0,0 L5,2 L11,6 L12,11 L6,11 L-2,5 L-2,1 Z " transform="translate(866,205)"/>
    <path id="linework-0024" d="M0,0 L4,1 L3,6 L-6,10 L-10,10 L-11,5 L-6,2 Z " transform="translate(1090,205)"/>
    <path id="linework-0025" d="M0,0 L4,1 L5,4 L2,7 L-6,10 L-10,9 L-11,6 L-8,3 Z " transform="translate(1643,205)"/>
    <path id="linework-0026" d="M0,0 L5,2 L11,6 L12,10 L8,12 L-2,6 L-2,1 Z " transform="translate(1973,205)"/>
    <path id="linework-0027" d="M0,0 L7,0 L8,4 L3,7 L-6,9 L-7,4 L-2,1 Z " transform="translate(2193,206)"/>
    <path id="linework-0028" d="M0,0 L54,1 L62,7 L65,14 L65,21 L69,23 L70,26 L70,46 L75,46 L76,47 L76,80 L75,82 L71,83 L70,88 L70,103 L69,106 L64,108 L59,115 L54,120 L52,131 L47,138 L35,140 L33,138 L33,134 L18,134 L16,139 L4,138 L1,133 L-2,118 L-9,112 L-11,108 L-16,105 L-17,100 L-17,85 L-23,82 L-24,78 L-24,49 L-21,45 L-17,44 L-17,25 L-13,19 L-12,12 L-8,6 L-5,3 Z M2,6 L-5,10 L-7,15 L-7,103 L-4,110 L2,113 L50,113 L56,110 L59,106 L59,12 L53,7 L50,6 Z M-17,51 L-19,55 L-18,76 L-14,77 L-13,76 L-12,53 L-14,51 Z M66,51 L65,52 L65,76 L70,77 L71,76 L71,52 Z M6,119 L5,124 L7,128 L45,128 L48,123 L46,119 Z " transform="translate(807,210)"/>
    <path id="linework-0029" d="M0,0 L6,1 L13,6 L13,11 L8,11 L-1,4 Z " transform="translate(588,211)"/>
    <path id="linework-0030" d="M0,0 L6,1 L13,7 L13,11 L8,11 L-1,5 Z " transform="translate(1142,211)"/>
    <path id="linework-0031" d="M0,0 L6,1 L12,5 L13,11 L8,11 L-1,5 Z " transform="translate(1695,211)"/>
    <path id="linework-0032" d="M0,0 L6,1 L13,6 L14,10 L9,11 L1,6 L-1,4 Z " transform="translate(2248,211)"/>
    <path id="linework-0033" d="M0,0 L57,0 L63,4 L67,10 L68,20 L72,22 L73,44 L78,45 L79,47 L79,78 L77,81 L73,81 L72,104 L67,106 L58,116 L56,117 L55,128 L54,131 L51,134 L48,137 L44,138 L36,138 L36,132 L19,132 L19,137 L14,138 L6,136 L3,132 L2,129 L1,117 L-7,110 L-8,106 L-13,104 L-15,101 L-16,82 L-20,81 L-21,79 L-21,46 L-16,43 L-15,24 L-11,19 L-10,10 L-6,4 Z M3,5 L-3,9 L-5,12 L-5,103 L0,110 L10,112 L55,111 L61,106 L62,104 L62,11 L55,5 Z M-16,50 L-17,51 L-17,73 L-16,75 L-11,75 L-10,74 L-10,51 L-11,50 Z M67,50 L67,75 L69,76 L74,74 L74,51 L73,50 Z M7,117 L7,124 L9,126 L49,126 L50,119 L49,117 Z " transform="translate(528,217)"/>
    <path id="linework-0034" d="M0,0 L56,0 L64,6 L67,12 L68,19 L71,23 L72,43 L77,45 L78,47 L78,78 L76,81 L72,82 L71,102 L69,105 L66,106 L60,114 L56,117 L54,129 L52,132 L50,132 L48,137 L43,138 L36,138 L35,137 L35,132 L19,133 L17,138 L7,137 L3,133 L1,119 L-4,114 L-10,106 L-15,104 L-16,81 L-21,80 L-22,78 L-22,47 L-20,44 L-16,43 L-15,22 L-11,18 L-9,7 L-2,1 Z M2,5 L-4,9 L-5,12 L-5,103 L-2,108 L2,111 L54,111 L60,106 L61,103 L61,12 L59,8 L54,5 Z M-16,50 L-17,51 L-17,73 L-15,76 L-11,74 L-10,73 L-10,51 Z M68,50 L67,51 L67,74 L70,76 L72,75 L73,70 L73,52 L72,50 Z M8,117 L7,118 L7,124 L10,127 L47,126 L49,124 L49,118 L48,117 Z " transform="translate(1082,217)"/>
    <path id="linework-0035" d="M0,0 L57,0 L66,8 L68,20 L72,23 L73,43 L78,45 L79,47 L79,78 L77,81 L73,81 L72,103 L66,107 L59,115 L55,116 L55,127 L54,131 L49,136 L43,138 L36,138 L35,134 L36,132 L19,132 L18,137 L14,138 L5,136 L2,131 L1,117 L-7,110 L-12,105 L-15,103 L-16,84 L-17,82 L-21,80 L-22,78 L-22,47 L-20,44 L-16,42 L-15,22 L-11,19 L-10,9 L-5,3 Z M2,5 L-5,11 L-6,27 L-6,100 L-3,107 L1,111 L10,112 L55,111 L60,106 L62,103 L62,12 L57,7 L54,5 Z M-17,50 L-17,75 L-15,76 L-10,74 L-10,51 L-11,50 Z M67,50 L66,53 L67,75 L70,76 L74,74 L74,51 L73,50 Z M8,116 L7,117 L7,125 L8,126 L49,126 L50,119 L49,117 Z " transform="translate(1635,217)"/>
    <path id="linework-0036" d="M0,0 L57,0 L66,8 L68,17 L68,20 L71,21 L72,30 L72,44 L77,45 L79,51 L78,79 L76,81 L72,81 L72,101 L70,105 L66,107 L59,115 L56,120 L54,130 L51,133 L50,136 L44,138 L36,138 L35,135 L36,132 L19,132 L19,137 L14,138 L5,136 L3,131 L1,118 L-7,110 L-10,106 L-14,104 L-15,81 L-20,80 L-21,79 L-21,46 L-19,44 L-15,43 L-14,21 L-11,19 L-9,9 L-3,2 Z M2,5 L-3,9 L-4,11 L-4,104 L0,110 L2,111 L55,111 L60,107 L62,101 L62,14 L60,9 L55,5 Z M-15,50 L-16,51 L-16,74 L-13,76 L-10,73 L-10,51 Z M68,50 L67,54 L67,72 L71,76 L73,74 L73,51 Z M9,117 L8,118 L8,125 L9,126 L48,126 L50,123 L49,118 L48,117 Z " transform="translate(2188,217)"/>
    <path id="linework-0037" d="M0,0 L4,0 L3,8 L-1,15 L-5,14 L-4,7 L-1,1 Z " transform="translate(766,239)"/>
    <path id="linework-0038" d="M0,0 L4,1 L2,10 L-1,15 L-5,14 L-5,8 Z " transform="translate(1873,239)"/>
    <path id="linework-0039" d="M0,0 L3,1 L2,10 L-2,16 L-5,15 L-5,8 Z " transform="translate(490,244)"/>
    <path id="linework-0040" d="M0,0 L3,1 L2,7 L-1,14 L-6,15 L-5,7 L-2,2 Z " transform="translate(1044,244)"/>
    <path id="linework-0041" d="M0,0 L4,1 L3,9 L0,15 L-3,16 L-4,15 L-4,6 Z " transform="translate(1596,244)"/>
    <path id="linework-0042" d="M0,0 L3,2 L0,12 L-5,16 L-7,11 L-3,2 Z " transform="translate(2151,244)"/>
    <path id="linework-0043" d="M0,0 L5,5 L6,14 L4,18 L0,14 L-2,8 L-2,2 Z " transform="translate(904,253)"/>
    <path id="linework-0044" d="M0,0 L4,2 L6,7 L6,17 L1,16 L-1,9 L-1,1 Z " transform="translate(2010,253)"/>
    <path id="linework-0045" d="M0,0 L3,0 L6,9 L6,16 L3,17 L0,14 L-1,11 L-1,1 Z " transform="translate(627,259)"/>
    <path id="linework-0046" d="M0,0 L5,2 L6,7 L6,15 L5,17 L1,16 L-1,7 L-1,1 Z " transform="translate(1180,259)"/>
    <path id="linework-0047" d="M0,0 L3,0 L6,11 L5,16 L1,16 L-1,13 L-1,1 Z " transform="translate(1734,259)"/>
    <path id="linework-0048" d="M0,0 L4,1 L6,4 L7,14 L6,19 L7,21 L7,31 L5,35 L1,33 L2,20 L2,16 L-1,6 Z " transform="translate(2286,259)"/>
    <path id="linework-0049" d="M0,0 L3,0 L4,2 L4,15 L1,17 L-1,15 L-1,1 Z " transform="translate(759,269)"/>
    <path id="linework-0050" d="M0,0 L3,0 L4,2 L4,14 L1,17 L-1,16 L-1,1 Z " transform="translate(1866,269)"/>
    <path id="linework-0051" d="M0,0 L3,0 L4,3 L4,11 L2,16 L-2,15 L-1,1 Z " transform="translate(906,272)"/>
    <path id="linework-0052" d="M0,0 L3,1 L4,8 L2,15 L-2,16 L-3,15 L-2,5 Z " transform="translate(2013,272)"/>
    <path id="linework-0053" d="M0,0 L4,0 L5,3 L5,14 L4,16 L0,15 L-1,11 L-1,2 Z " transform="translate(482,275)"/>
    <path id="linework-0054" d="M0,0 L4,1 L5,14 L1,16 L-1,14 L-1,1 Z " transform="translate(1035,275)"/>
    <path id="linework-0055" d="M0,0 L4,1 L5,13 L4,16 L0,15 L-1,14 L-2,2 Z " transform="translate(1589,275)"/>
    <path id="linework-0056" d="M0,0 L3,3 L3,16 L-1,17 L-2,16 L-2,1 Z " transform="translate(2143,274)"/>
    <path id="linework-0057" d="M0,0 L3,1 L3,13 L0,16 L-3,15 L-3,6 L-1,1 Z " transform="translate(630,278)"/>
    <path id="linework-0058" d="M0,0 L3,0 L4,2 L4,13 L3,16 L-1,15 L-1,1 Z " transform="translate(1182,278)"/>
    <path id="linework-0059" d="M0,0 L3,1 L3,11 L0,16 L-3,16 L-4,14 L-3,3 Z " transform="translate(1737,278)"/>
    <path id="linework-0060" d="M0,0 L4,2 L8,11 L7,16 L2,13 L-2,5 L-1,1 Z " transform="translate(765,299)"/>
    <path id="linework-0061" d="M0,0 L4,1 L9,12 L9,15 L4,15 L0,9 L-1,1 Z " transform="translate(1871,299)"/>
    <path id="linework-0062" d="M0,0 L5,1 L9,9 L9,15 L4,14 L-1,4 Z " transform="translate(487,305)"/>
    <path id="linework-0063" d="M0,0 L4,4 L8,12 L7,17 L3,15 L-2,7 L-2,1 Z " transform="translate(1042,304)"/>
    <path id="linework-0064" d="M0,0 L5,1 L9,10 L9,15 L4,14 L1,10 L-1,5 Z " transform="translate(1594,305)"/>
    <path id="linework-0065" d="M0,0 L4,0 L10,12 L9,15 L4,14 L0,7 Z " transform="translate(2147,305)"/>
    <path id="linework-0066" d="M0,0 L5,3 L11,8 L11,13 L5,12 L0,8 L-1,1 Z " transform="translate(784,325)"/>
    <path id="linework-0067" d="M0,0 L4,1 L4,6 L-4,12 L-9,12 L-8,7 Z " transform="translate(879,327)"/>
    <path id="linework-0068" d="M0,0 L4,2 L3,6 L-5,12 L-10,11 L-9,7 Z " transform="translate(1986,327)"/>
    <path id="linework-0069" d="M0,0 L5,1 L12,7 L12,12 L8,12 L0,6 L-1,2 Z " transform="translate(2166,331)"/>
    <path id="linework-0070" d="M0,0 L4,0 L5,4 L3,7 L-2,10 L-4,12 L-9,11 L-8,6 Z " transform="translate(602,333)"/>
    <path id="linework-0071" d="M0,0 L5,1 L4,6 L-4,12 L-9,11 L-8,7 Z " transform="translate(1155,333)"/>
    <path id="linework-0072" d="M0,0 L4,0 L4,5 L-5,12 L-9,11 L-8,5 Z " transform="translate(1709,333)"/>
    <path id="linework-0073" d="M0,0 L4,0 L5,4 L0,9 L-5,12 L-9,12 L-9,7 Z " transform="translate(2262,333)"/>
    <path id="linework-0074" d="M0,0 L2493,0 L2495,1 L2494,5 L2029,5 L2030,85 L2125,84 L2128,88 L2129,94 L2129,253 L2126,257 L2052,257 L2048,253 L2049,220 L2048,219 L2036,219 L2036,247 L2037,252 L2033,257 L2029,257 L2030,338 L2527,337 L2526,343 L2025,344 L675,344 L0,343 L-1,341 L-1,1 Z M4,5 L3,10 L3,334 L5,339 L672,338 L674,336 L674,258 L667,255 L666,254 L666,219 L664,218 L652,218 L652,253 L650,256 L576,256 L573,253 L574,97 L573,95 L573,89 L577,85 L585,86 L673,85 L674,84 L674,6 L673,5 Z M679,5 L678,9 L679,85 L681,86 L741,85 L744,90 L744,253 L743,256 L679,257 L678,261 L679,338 L681,339 L1347,338 L1349,336 L1349,65 L1346,63 L1295,63 L1290,61 L1290,14 L1347,13 L1349,11 L1349,6 L1348,5 Z M1354,5 L1353,9 L1354,13 L1406,14 L1407,24 L1407,58 L1406,61 L1398,63 L1355,63 L1354,64 L1354,338 L1356,339 L2022,338 L2024,336 L2024,258 L2023,257 L1959,256 L1957,254 L1957,89 L1961,85 L1968,86 L2023,85 L2024,84 L2024,6 L2023,5 Z M1295,18 L1295,20 L1297,20 L1297,18 Z M1306,18 L1299,19 L1303,21 L1306,24 L1310,22 L1312,21 L1384,21 L1388,24 L1392,22 L1392,20 L1394,19 L1391,18 Z M1397,19 Z M1294,26 L1294,46 L1296,47 L1301,45 L1301,27 L1300,26 Z M1315,26 L1312,29 L1309,41 L1309,48 L1386,48 L1387,47 L1386,39 L1384,30 L1381,26 Z M1396,26 L1395,30 L1395,44 L1397,47 L1402,45 L1402,27 Z M1295,53 L1295,56 L1296,57 L1399,57 L1401,56 L1400,53 Z M589,92 L588,93 L588,100 L580,101 L579,106 L579,241 L580,243 L587,244 L588,251 L644,251 L647,248 L647,219 L646,218 L630,217 L628,198 L627,193 L627,175 L630,152 L632,147 L633,130 L672,129 L674,127 L674,113 L673,111 L670,110 L641,110 L639,109 L637,101 L640,95 L640,92 Z M679,92 L680,97 L681,105 L678,114 L678,126 L679,129 L686,129 L687,148 L690,156 L691,178 L692,181 L692,188 L691,190 L690,209 L689,216 L688,217 L679,218 L678,222 L678,249 L680,252 L731,251 L732,244 L739,243 L740,242 L740,100 L732,100 L731,93 L730,92 Z M1972,92 L1971,93 L1970,100 L1963,100 L1963,243 L1970,244 L1971,251 L1975,252 L2023,251 L2024,250 L2024,219 L2023,218 L2014,217 L2013,216 L2012,200 L2010,189 L2010,179 L2012,166 L2013,152 L2015,148 L2016,130 L2023,128 L2024,127 L2024,111 L2022,109 L2021,100 L2024,93 L2023,92 Z M2061,92 L2061,95 L2064,99 L2064,106 L2063,109 L2060,110 L2030,110 L2029,111 L2028,126 L2029,129 L2069,130 L2070,147 L2073,155 L2074,174 L2075,179 L2075,189 L2074,194 L2073,212 L2071,217 L2056,218 L2055,223 L2055,248 L2056,251 L2114,251 L2115,244 L2122,243 L2123,242 L2123,101 L2121,100 L2115,100 L2114,93 L2113,92 Z M648,100 L644,101 L646,105 L673,105 L673,101 L672,100 Z M2030,100 L2028,103 L2029,105 L2056,105 L2056,101 L2055,100 Z M637,134 L636,138 L637,148 L679,148 L682,145 L682,135 L680,134 Z M2020,134 L2020,147 L2025,148 L2062,148 L2065,147 L2066,138 L2064,134 Z M637,153 L634,154 L632,174 L632,180 L633,181 L685,181 L686,180 L686,156 L682,153 Z M2020,153 L2017,155 L2015,179 L2017,181 L2068,181 L2070,178 L2069,156 L2065,153 Z M633,188 L631,191 L632,193 L634,213 L682,213 L686,210 L687,190 L685,188 Z M2017,188 L2015,189 L2017,212 L2018,213 L2065,213 L2069,211 L2070,189 L2068,188 Z M672,219 L672,249 L674,250 L674,219 Z M2029,219 L2029,249 L2030,249 L2030,219 Z " transform="translate(36,490)"/>
    <path id="linework-0075" d="M0,0 L5,0 L6,1 L7,338 L5,343 L-1,343 L-2,337 L1,336 L1,6 L0,5 Z " transform="translate(2733,490)"/>
    <path id="linework-0076" d="M0,0 L111,0 L113,1 L114,4 L114,47 L112,51 L0,52 L-4,46 L-5,38 L-5,10 L-2,1 Z M12,6 L12,10 L16,11 L18,7 Z M94,6 L92,8 L95,11 L99,9 L99,7 Z M3,13 L2,14 L2,33 L6,34 L7,33 L7,14 Z M22,13 L20,15 L16,30 L16,35 L93,35 L94,34 L93,25 L90,14 L85,13 Z M104,13 L102,16 L103,33 L108,34 L109,33 L109,14 Z M4,40 L3,44 L107,44 L108,41 L96,40 Z " transform="translate(2299,500)"/>
    <path id="linework-0077" d="M0,0 L111,0 L114,2 L115,34 L114,47 L112,51 L-1,51 L-3,46 L-4,38 L-4,9 L-2,1 Z M12,6 L12,10 L15,11 L18,9 L93,9 L98,11 L100,7 L99,6 Z M4,12 L2,14 L2,32 L3,34 L7,33 L8,30 L7,13 Z M22,13 L18,22 L16,34 L17,35 L93,35 L94,34 L94,26 L90,14 Z M106,12 L103,15 L103,32 L107,34 L109,32 L109,14 Z M4,40 L4,44 L108,43 L108,41 L11,41 Z " transform="translate(364,510)"/>
    <path id="linework-0078" d="M0,0 L164,0 L169,6 L169,168 L167,173 L90,173 L89,172 L88,135 L76,134 L76,169 L74,173 L-2,173 L-4,171 L-4,4 Z M13,8 L10,15 L3,18 L3,158 L8,159 L11,160 L12,168 L68,167 L71,163 L71,135 L70,134 L54,133 L51,116 L51,82 L54,66 L56,62 L57,46 L60,45 L106,45 L109,47 L110,62 L113,71 L115,99 L113,128 L111,133 L97,134 L95,135 L95,161 L97,167 L100,168 L154,167 L156,160 L160,159 L163,160 L163,16 L156,16 L153,8 L102,8 L102,11 L105,16 L105,25 L97,27 L94,26 L65,26 L60,22 L60,15 L63,11 L63,8 Z M71,16 L68,17 L70,21 L97,21 L97,17 L95,16 Z M61,50 L60,54 L61,64 L102,64 L105,61 L105,51 L103,50 Z M60,69 L57,72 L55,86 L55,97 L109,97 L110,96 L110,80 L109,73 L104,69 Z M55,104 L55,113 L57,127 L58,129 L106,129 L108,127 L110,118 L110,105 L109,104 Z " transform="translate(336,574)"/>
    <path id="linework-0079" d="M0,0 L164,0 L169,5 L169,11 L168,12 L168,162 L169,169 L165,173 L91,173 L88,170 L89,136 L88,135 L75,135 L76,170 L73,173 L-2,173 L-3,172 L-3,3 Z M11,8 L10,13 L9,16 L2,16 L2,159 L8,159 L10,163 L11,167 L14,168 L68,167 L69,166 L69,135 L68,134 L53,133 L52,132 L51,113 L49,104 L49,97 L51,86 L52,69 L54,65 L55,45 L108,46 L109,49 L110,66 L112,70 L113,85 L114,90 L114,109 L113,114 L112,130 L111,133 L95,134 L94,137 L95,165 L99,168 L153,167 L154,160 L162,158 L162,18 L154,15 L152,8 L100,8 L102,12 L103,14 L103,23 L100,26 L64,26 L61,25 L61,13 L64,10 L64,8 Z M69,16 L67,19 L68,21 L95,21 L96,17 L94,16 Z M60,50 L59,51 L59,62 L61,64 L103,64 L105,62 L105,51 L104,50 Z M59,69 L56,71 L55,96 L56,97 L108,97 L109,96 L108,72 L104,69 Z M56,104 L55,105 L56,128 L59,129 L106,129 L108,127 L109,109 L110,106 L108,104 Z " transform="translate(890,574)"/>
    <path id="linework-0080" d="M0,0 L164,0 L168,4 L169,8 L168,171 L166,173 L90,173 L88,167 L88,135 L76,135 L75,172 L74,173 L-3,173 L-4,172 L-4,4 Z M10,8 L9,15 L3,17 L2,14 L1,14 L1,161 L4,159 L9,159 L10,167 L13,168 L67,167 L68,166 L69,136 L67,134 L53,133 L51,127 L50,105 L49,98 L50,95 L51,71 L54,62 L55,47 L58,45 L107,46 L108,48 L109,65 L111,69 L113,81 L114,94 L114,106 L111,131 L110,133 L94,134 L93,137 L94,165 L98,168 L152,167 L153,160 L161,158 L161,17 L154,15 L151,8 L101,8 L102,12 L104,15 L104,22 L98,27 L93,26 L70,26 L67,27 L60,24 L60,13 L63,10 L63,8 Z M68,16 L66,19 L67,21 L94,21 L96,17 L93,16 Z M61,50 L59,54 L60,63 L61,64 L102,64 L104,62 L104,51 L103,50 Z M59,69 L55,73 L55,97 L109,97 L110,93 L107,71 L103,69 Z M55,104 L54,108 L55,125 L58,129 L105,129 L107,127 L110,105 L109,104 Z " transform="translate(1167,574)"/>
    <path id="linework-0081" d="M0,0 L164,0 L169,6 L169,168 L167,173 L90,173 L89,172 L88,135 L76,134 L76,168 L74,173 L-3,173 L-4,172 L-4,4 Z M12,8 L10,14 L8,16 L2,18 L2,158 L11,161 L11,167 L13,168 L68,167 L70,164 L71,136 L69,134 L54,133 L52,126 L51,119 L51,78 L54,65 L55,63 L56,45 L108,46 L109,61 L113,73 L114,85 L114,114 L112,128 L111,133 L96,134 L94,135 L94,162 L97,167 L100,168 L153,167 L155,160 L162,158 L162,17 L155,15 L153,8 L101,8 L103,12 L105,18 L103,24 L98,27 L94,26 L70,26 L66,27 L60,22 L60,13 L63,10 L63,8 Z M69,16 L67,17 L67,20 L69,21 L96,21 L98,18 L95,16 Z M61,50 L60,51 L60,61 L61,64 L102,64 L104,63 L104,51 L103,50 Z M59,69 L57,71 L55,81 L55,97 L109,97 L110,96 L110,85 L108,73 L106,70 L103,69 Z M55,104 L54,108 L57,127 L58,129 L105,129 L108,126 L110,114 L110,105 L109,104 Z " transform="translate(1443,574)"/>
    <path id="linework-0082" d="M0,0 L165,0 L169,6 L169,169 L167,173 L91,173 L89,171 L88,135 L76,134 L76,170 L74,173 L-1,173 L-4,170 L-4,4 Z M13,8 L10,16 L3,18 L3,157 L4,159 L11,160 L12,167 L68,167 L71,163 L71,135 L70,134 L54,133 L51,113 L51,86 L54,67 L56,63 L57,46 L106,45 L109,46 L110,48 L111,65 L113,70 L114,76 L115,104 L113,130 L111,133 L97,134 L96,135 L96,166 L100,168 L154,167 L156,160 L160,159 L164,158 L164,15 L156,16 L154,8 L102,8 L102,11 L105,16 L104,25 L94,26 L65,26 L60,21 L60,16 L64,9 L63,8 Z M72,16 L68,17 L70,21 L97,21 L97,17 L95,16 Z M61,50 L60,54 L61,64 L103,64 L105,62 L105,51 L103,50 Z M60,69 L58,70 L57,73 L55,90 L55,96 L56,97 L109,97 L110,96 L110,76 L108,71 L105,69 Z M56,104 L55,109 L57,126 L58,129 L106,129 L109,126 L110,121 L110,105 L109,104 Z " transform="translate(1719,574)"/>
    <path id="linework-0083" d="M0,0 L164,0 L168,4 L168,170 L164,173 L90,173 L88,170 L88,135 L76,135 L75,171 L73,173 L-3,173 L-4,172 L-4,4 Z M10,8 L8,16 L1,15 L1,159 L7,159 L9,164 L11,168 L67,167 L68,166 L68,135 L67,134 L51,133 L50,109 L48,99 L50,90 L51,70 L53,65 L54,48 L55,46 L60,45 L107,46 L108,49 L109,65 L111,70 L114,98 L113,112 L111,130 L110,133 L94,134 L93,137 L94,165 L98,168 L152,167 L153,160 L161,158 L161,18 L153,15 L151,8 L101,8 L101,11 L104,17 L103,22 L99,26 L64,26 L60,25 L60,13 L63,10 L63,8 Z M68,16 L66,19 L67,21 L94,21 L96,17 L93,16 Z M60,50 L58,54 L59,62 L61,64 L102,64 L104,62 L104,51 L103,50 Z M58,69 L55,72 L54,96 L55,97 L107,97 L109,96 L107,72 L103,69 Z M55,104 L54,109 L55,127 L58,129 L105,129 L107,127 L109,105 L107,104 Z " transform="translate(2274,574)"/>
    <path id="linework-0084" d="M0,0 L340,0 L342,2 L342,678 L340,680 L1,680 L-1,678 L-1,2 Z M4,5 L3,8 L4,674 L5,675 L335,675 L337,673 L338,7 L336,5 Z " transform="translate(876,907)"/>
    <path id="linework-0085" d="M0,0 L340,0 L342,2 L342,678 L340,680 L1,680 L-1,678 L-1,2 Z M4,5 L3,8 L4,674 L5,675 L335,675 L338,672 L338,7 L336,5 Z " transform="translate(1551,907)"/>
    <path id="linework-0086" d="M0,0 L48,0 L52,4 L52,76 L51,79 L49,80 L0,80 L-4,76 L-4,4 Z M3,6 L1,9 L3,13 L4,11 L19,10 L19,6 Z M35,6 L34,11 L36,12 L42,12 L44,14 L43,19 L37,21 L38,24 L43,25 L45,33 L45,45 L43,51 L41,53 L42,57 L44,59 L43,66 L45,73 L47,72 L47,7 L46,6 Z M10,15 L9,16 L9,59 L10,61 L16,61 L17,60 L17,16 L16,15 Z M3,16 L3,60 L4,60 L4,16 Z M28,37 L28,40 L30,40 L29,37 Z M38,54 Z " transform="translate(1098,1071)"/>
    <path id="linework-0087" d="M0,0 L49,0 L52,3 L53,12 L53,72 L51,79 L49,80 L0,80 L-2,78 L-2,2 Z M3,6 L2,10 L3,73 L5,73 L6,60 L8,54 L5,46 L5,31 L8,24 L8,21 L6,18 L7,13 L14,11 L15,8 L13,6 Z M30,6 L30,10 L44,10 L45,72 L47,72 L47,7 L45,6 Z M33,15 L32,16 L32,60 L33,61 L39,61 L40,60 L40,16 L39,15 Z M11,22 Z M9,37 L9,40 L11,40 L11,37 Z M20,37 L19,40 L22,39 Z " transform="translate(1621,1071)"/>
    <path id="linework-0088" d="M0,0 L66,0 L69,5 L69,92 L67,97 L66,98 L0,98 L-1,97 L-1,1 Z M23,5 L22,6 L22,11 L43,10 L52,10 L57,8 L55,5 Z M5,11 L4,12 L4,43 L9,43 L12,46 L11,53 L7,55 L4,55 L4,86 L19,86 L21,83 L20,77 L15,76 L15,68 L20,65 L20,60 L18,58 L15,58 L15,51 L18,50 L16,46 L15,41 L20,38 L20,32 L15,31 L15,23 L20,20 L21,12 L16,11 Z M31,25 Z M40,25 Z M49,25 Z M58,25 Z M31,33 L31,35 L33,35 L33,33 Z M40,33 L40,35 L42,35 L42,33 Z M49,33 L49,35 L51,35 L51,33 Z M58,33 L58,35 L60,35 L60,33 Z M31,42 L31,45 L33,45 L33,42 Z M40,42 L40,45 L42,45 L42,42 Z M49,42 L49,45 L51,45 L51,42 Z M58,42 L58,45 L60,45 L60,42 Z M31,53 L31,56 L33,56 L33,53 Z M40,53 L40,56 L42,56 L42,53 Z M49,53 L49,56 L51,56 L51,53 Z M58,53 L58,56 L60,56 L60,53 Z M31,63 L32,65 L33,63 Z M40,63 L42,65 L42,63 Z M49,63 Z M58,63 Z M31,72 Z M40,72 Z M49,72 Z M58,72 Z M31,81 Z M40,81 Z M49,81 Z M58,81 Z M22,87 L22,92 L25,93 L54,93 L56,92 L55,88 Z " transform="translate(1089,1171)"/>
    <path id="linework-0089" d="M0,0 L67,0 L68,1 L69,9 L69,88 L68,97 L67,98 L1,98 L-1,97 L-2,94 L-2,3 Z M11,5 L10,9 L18,10 L33,10 L45,11 L45,6 L43,5 Z M45,11 L47,21 L52,22 L52,28 L51,30 L46,33 L47,38 L52,41 L53,47 L49,47 L50,51 L53,51 L52,57 L47,59 L46,65 L52,67 L52,73 L51,75 L46,78 L46,86 L63,86 L64,84 L64,56 L58,54 L56,52 L56,46 L58,43 L64,42 L64,13 L57,11 Z M34,16 Z M16,24 L16,26 L18,26 L18,24 Z M25,24 L25,26 L27,26 L27,24 Z M34,24 L34,26 L36,26 L36,24 Z M8,25 Z M8,33 L7,35 L9,35 Z M16,33 L16,35 L18,35 L18,33 Z M25,33 L25,35 L27,35 L27,33 Z M34,33 L34,35 L36,35 L36,33 Z M7,42 L8,45 L9,42 Z M16,42 L16,45 L18,45 L18,42 Z M25,42 L25,45 L27,45 L27,42 Z M34,42 L34,45 L37,44 L36,42 Z M7,53 L8,56 L9,53 Z M16,53 L16,56 L18,56 L18,53 Z M25,53 L25,56 L27,56 L27,53 Z M34,53 L34,56 L36,56 L36,53 Z M17,62 L16,65 L18,65 Z M25,62 L25,65 L27,65 L27,62 Z M34,62 L34,65 L36,65 L36,62 Z M7,63 Z M34,71 L34,74 L36,74 L36,71 Z M7,72 Z M16,72 Z M25,72 Z M8,81 Z M16,81 Z M25,81 L25,83 L27,83 L27,81 Z M34,81 L34,83 L36,83 L36,81 Z M44,86 L41,87 L11,88 L10,92 L17,93 L41,93 L45,91 L46,86 Z " transform="translate(1612,1171)"/>
    <path id="linework-0090" d="M0,0 L68,0 L70,1 L71,4 L71,124 L69,127 L-2,127 L-3,125 L-3,2 Z M2,7 L3,11 L5,7 Z M12,6 L9,7 L11,11 L12,16 L19,17 L23,16 L25,7 Z M28,7 L30,10 L32,17 L46,17 L53,18 L54,7 Z M64,7 L64,100 L60,102 L55,102 L54,99 L53,99 L52,120 L53,122 L64,122 L66,120 L66,8 Z M2,14 L2,23 L5,20 L4,15 Z M15,22 L15,26 L17,26 L18,23 Z M23,22 L23,26 L26,26 L26,22 Z M32,22 L32,26 L35,25 L34,22 Z M41,22 L42,26 L44,25 L43,22 Z M2,25 L2,33 L5,30 L3,25 Z M24,33 L23,36 L26,36 L26,33 Z M33,33 L33,36 Z M15,34 Z M42,34 Z M2,36 L2,44 L5,41 L3,36 Z M14,43 L15,47 L18,46 L17,43 Z M23,43 L23,47 L27,46 L26,43 Z M32,43 L32,47 L35,46 L35,43 Z M41,43 L41,47 L44,46 L43,43 Z M2,46 L2,54 L5,51 L3,46 Z M24,54 L23,56 L25,58 L25,54 Z M15,55 Z M33,55 L34,57 Z M2,57 L2,113 L10,108 L10,62 L5,60 Z M41,62 L40,66 L40,108 L39,111 L32,112 L31,115 L30,121 L31,122 L43,122 L45,121 L45,63 Z M17,67 L15,69 L15,105 L17,107 L34,107 L36,105 L36,68 L35,67 Z M14,112 L13,115 L13,121 L14,122 L19,122 L20,118 L20,113 Z M2,117 L2,121 L4,121 Z " transform="translate(1088,1295)"/>
    <path id="linework-0091" d="M0,0 L70,1 L71,2 L71,125 L69,127 L-1,127 L-3,124 L-3,4 Z M4,6 L3,11 L5,9 Z M14,7 L14,100 L10,102 L5,102 L4,99 L2,102 L2,120 L3,122 L14,122 L16,121 L17,60 L17,17 L35,17 L37,16 L39,7 Z M42,7 L44,10 L46,17 L54,17 L57,16 L57,11 L59,7 Z M64,17 L63,19 L66,20 L66,17 Z M25,22 L24,25 L28,25 L27,22 Z M33,22 L34,26 L36,26 L37,23 Z M42,22 L42,26 L45,26 L45,22 Z M51,22 L52,26 L54,25 L53,22 Z M64,28 L62,30 L66,31 L66,28 Z M34,33 L34,36 L36,36 L36,33 Z M43,33 L43,36 L45,34 Z M26,34 Z M51,34 L53,36 L53,34 Z M65,38 L65,41 Z M25,43 L25,47 L28,46 L27,43 Z M33,43 L33,47 L37,46 L36,43 Z M42,43 L42,47 L45,47 L45,43 Z M51,43 L51,47 L54,46 L53,43 Z M64,49 L63,51 L66,52 L66,49 Z M34,54 L34,57 L36,57 L35,54 Z M43,54 L43,57 Z M52,55 Z M65,59 L58,62 L57,64 L58,109 L65,111 L66,111 L66,59 Z M24,62 L23,63 L23,121 L24,122 L36,122 L38,121 L37,113 L36,112 L29,111 L28,63 Z M33,67 L32,104 L33,107 L50,107 L53,104 L53,69 L51,67 Z M49,112 L47,121 L52,122 L55,121 L55,113 Z " transform="translate(1612,1295)"/>
  </g>
</svg>
