<svg xmlns="http://www.w3.org/2000/svg" viewBox="0 0 2916 1548" width="100%" height="100%" preserveAspectRatio="xMidYMid meet">
  <g id="layer-accents" fill="#e22020">
    <path id="accents-0001" d="M0,0 L5,0 L9,0 L29,1 L30,2 L30,24 L28,26 L7,26 L1,27 L-1,26 L0,21 L16,21 L17,5 L-1,5 Z M22,5 L21,6 L21,21 L25,22 L26,21 L26,6 Z " transform="translate(2295,1013)"/>
    <path id="accents-0002" d="M0,0 L7,1 L19,1 L25,3 L25,25 L19,28 L-13,28 L-14,27 L-14,3 L-13,2 L-2,1 Z M-6,6 L-8,8 L-8,21 L-6,23 L-3,23 L-2,21 L-2,7 Z M7,6 L5,7 L5,21 L14,24 L23,21 L24,20 L24,9 L21,6 Z " transform="translate(1813,1017)"/>
  </g>
</svg>
