<svg xmlns="http://www.w3.org/2000/svg" viewBox="0 0 2832 1209" width="100%" height="100%" preserveAspectRatio="xMidYMid meet">
  <g id="layer-accents" fill="#e22020">
    <path id="accents-0001" d="M0,0 L7,1 L6,6 L6,13 L7,17 L6,19 L0,19 L-3,17 L-3,2 Z " transform="translate(443,856)"/>
    <path id="accents-0002" d="M0,0 L6,0 L8,1 L9,17 L7,19 L-1,19 L-2,14 L-1,13 L4,13 L4,7 L-3,5 L-2,1 Z " transform="translate(466,856)"/>
    <path id="accents-0003" d="M0,0 L28,0 L30,1 L30,17 L27,19 L0,20 L-3,17 L-1,7 L-3,7 L-2,1 Z M3,5 L2,6 L2,12 L5,15 L24,14 L26,12 L26,6 L25,5 Z " transform="translate(1408,856)"/>
    <path id="accents-0004" d="M0,0 L8,0 L11,1 L10,6 L6,7 L7,13 L11,14 L10,18 L9,19 L0,19 L-2,18 L-2,1 Z " transform="translate(2377,856)"/>
    <path id="accents-0005" d="M0,0 L7,0 L9,3 L9,17 L8,19 L0,19 L-2,15 L2,6 L-2,5 L-1,1 Z " transform="translate(2401,856)"/>
  </g>
</svg>
