<svg xmlns="http://www.w3.org/2000/svg" viewBox="0 0 2775 1629" width="100%" height="100%" preserveAspectRatio="xMidYMid meet">
  <g id="layer-dimensions" fill="#3a4fd6">
    <path id="dimensions-0001" d="M0,0 L4,2 L5,8 L10,13 L267,13 L274,11 L275,2 L279,0 L281,2 L283,9 L285,13 L545,13 L552,11 L552,4 L554,0 L557,1 L559,9 L564,13 L822,13 L828,11 L829,1 L833,1 L835,9 L840,12 L841,13 L1097,13 L1104,11 L1105,2 L1108,0 L1110,1 L1111,8 L1115,10 L1117,13 L1370,13 L1381,12 L1381,3 L1384,0 L1387,1 L1390,9 L1393,13 L1656,13 L1659,11 L1660,2 L1664,2 L1665,9 L1668,12 L1668,16 L1665,19 L1664,147 L1663,149 L1661,149 L1660,147 L1659,64 L1660,23 L1655,22 L1654,18 L1411,18 L1390,19 L1389,20 L1388,63 L1388,145 L1385,150 L1383,150 L1381,145 L1381,23 L1379,23 L1377,19 L1354,18 L1118,18 L1111,20 L1111,72 L1110,148 L1109,150 L1106,150 L1105,148 L1104,65 L1105,23 L1101,21 L1097,18 L841,18 L835,19 L834,25 L834,144 L832,151 L829,150 L828,65 L829,23 L824,22 L823,18 L564,18 L559,19 L558,21 L558,72 L557,150 L555,151 L553,150 L552,64 L552,24 L547,21 L545,18 L303,18 L283,19 L282,20 L282,72 L281,148 L280,150 L276,148 L275,146 L274,64 L274,24 L271,21 L270,19 L231,18 L12,18 L5,20 L4,62 L5,64 L4,124 L4,146 L2,150 L-1,150 L-2,147 L-2,23 L-5,22 L-7,19 L-30,18 L-272,18 L-273,20 L-273,72 L-274,149 L-277,150 L-278,146 L-279,23 L-282,20 L-283,15 L-279,12 L-278,2 L-274,1 L-273,10 L-268,11 L-267,13 L-13,13 L-2,12 L-2,2 Z " transform="translate(694,37)"/>
    <path id="dimensions-0002" d="M0,0 L3,1 L4,5 L158,6 L159,10 L158,11 L9,12 L4,15 L4,342 L158,342 L159,343 L159,349 L10,350 L8,352 L4,352 L4,393 L159,393 L159,398 L9,399 L7,403 L5,402 L4,404 L4,729 L7,730 L157,730 L159,732 L158,736 L157,737 L9,738 L4,740 L0,741 L-1,737 L-11,737 L-13,735 L-12,731 L-2,726 L-2,399 L-11,398 L-13,397 L-11,393 L-6,391 L-2,388 L-1,350 L-6,348 L-6,341 L-2,338 L-2,12 L-13,11 L-14,7 L-5,4 Z " transform="translate(2574,97)"/>
    <path id="dimensions-0003" d="M0,0 L7,0 L9,4 L18,5 L19,9 L18,10 L11,10 L9,14 L8,680 L18,680 L19,684 L18,685 L11,685 L9,689 L4,688 L3,686 L-132,685 L-133,681 L-132,680 L-2,680 L0,675 L3,674 L3,10 L-132,10 L-133,6 L-132,5 L-2,5 Z " transform="translate(2029,902)"/>
    <path id="dimensions-0004" d="M0,0 L9,0 L9,4 L0,5 L-1,8 L0,10 L8,11 L9,15 L8,16 L-1,17 L-1,21 L8,22 L9,23 L9,30 L8,31 L0,32 L-1,35 L0,37 L8,38 L9,42 L8,43 L-1,44 L-1,48 L7,48 L9,49 L8,53 L-4,53 L-6,49 L-6,32 L-3,27 L-6,22 L-6,5 L-2,1 Z " transform="translate(2009,1184)"/>
    <path id="dimensions-0005" d="M0,0 L12,0 L16,2 L17,4 L17,11 L11,15 L2,15 L-3,13 L-5,10 L-4,2 Z M1,4 L-1,5 L0,10 L1,11 L10,11 L13,9 L13,5 L10,4 Z " transform="translate(2002,1240)"/>
    <path id="dimensions-0006" d="M0,0 L5,2 L6,6 L3,10 L5,17 L6,21 L3,25 L1,30 L-4,29 L-6,28 L-6,26 L-12,24 L-15,21 L-14,17 L-3,17 L-3,14 L-6,13 L-6,11 L-12,9 L-15,6 L-14,2 L-5,2 Z " transform="translate(2012,1258)"/>
    <path id="dimensions-0007" d="M0,0 L4,2 L4,5 L0,4 Z " transform="translate(2017,1290)"/>
    <path id="dimensions-0008" d="M0,0 L6,1 L11,7 L14,8 L14,2 L15,0 L18,1 L18,14 L14,15 L9,12 L4,6 L1,6 L1,12 L-3,13 L-4,11 L-3,2 Z " transform="translate(2001,1297)"/>
  </g>
</svg>
