<svg xmlns="http://www.w3.org/2000/svg" viewBox="0 0 2832 1209" width="100%" height="100%" preserveAspectRatio="xMidYMid meet">
  <g id="layer-linework" fill="#1a1a1a">
    <path id="linework-0001" d="M0,0 L3,1 L4,14 L10,14 L11,2 L15,0 L16,1 L17,15 L26,20 L32,25 L37,33 L37,35 L42,36 L43,38 L43,56 L40,59 L37,59 L35,65 L27,74 L18,79 L16,79 L17,293 L24,295 L33,303 L37,310 L42,312 L43,314 L43,332 L40,335 L37,335 L35,342 L29,349 L19,355 L17,356 L17,540 L18,541 L65,542 L67,545 L67,624 L72,623 L93,624 L94,625 L103,625 L101,622 L101,601 L103,599 L103,596 L95,591 L95,495 L97,494 L106,494 L106,477 L111,467 L115,464 L118,463 L119,450 L126,447 L164,447 L169,449 L171,451 L172,456 L172,464 L178,466 L178,468 L181,469 L181,471 L183,471 L184,473 L184,495 L195,495 L196,496 L196,590 L193,593 L187,597 L189,604 L189,622 L186,626 L197,625 L199,624 L270,623 L272,622 L272,543 L274,539 L274,356 L263,350 L256,343 L253,336 L248,334 L247,315 L248,312 L254,311 L255,307 L260,300 L268,294 L273,292 L274,289 L274,80 L261,72 L257,67 L253,60 L248,58 L247,39 L248,36 L253,34 L257,27 L267,18 L273,15 L274,14 L275,1 L279,0 L280,2 L280,15 L287,13 L287,3 L290,0 L293,1 L294,14 L297,17 L304,21 L311,28 L314,34 L318,36 L319,38 L319,56 L316,59 L313,62 L308,70 L306,70 L305,73 L295,79 L294,80 L294,293 L300,295 L308,301 L314,310 L318,312 L319,314 L319,332 L316,335 L314,335 L312,341 L303,351 L294,356 L294,539 L295,548 L295,624 L300,623 L369,624 L372,626 L380,626 L377,619 L378,617 L379,603 L380,599 L382,599 L382,596 L377,594 L372,589 L371,584 L373,578 L372,573 L371,497 L372,495 L375,494 L382,494 L382,477 L387,468 L394,463 L395,451 L403,447 L444,447 L447,449 L449,462 L457,469 L457,471 L459,471 L460,473 L460,495 L469,494 L470,480 L464,478 L464,433 L465,432 L550,431 L550,356 L541,351 L534,345 L530,338 L530,335 L524,334 L524,315 L528,311 L530,311 L532,306 L539,298 L547,293 L550,293 L550,80 L545,77 L536,70 L530,61 L530,59 L524,58 L524,38 L525,36 L530,35 L531,31 L538,22 L548,16 L550,16 L551,1 L555,0 L556,2 L556,15 L564,13 L565,1 L569,0 L570,1 L571,14 L574,17 L583,23 L590,32 L595,37 L595,56 L590,62 L586,68 L577,76 L572,78 L571,80 L571,289 L572,293 L577,295 L587,304 L591,310 L595,314 L595,333 L591,336 L587,343 L582,349 L571,356 L571,431 L673,431 L674,414 L681,406 L686,407 L689,410 L696,410 L704,409 L711,410 L727,410 L740,411 L747,413 L748,415 L748,432 L805,432 L806,433 L806,477 L803,479 L799,479 L799,624 L827,623 L826,543 L826,356 L815,349 L807,339 L806,336 L802,333 L802,314 L807,309 L813,300 L822,294 L826,293 L826,79 L816,73 L809,66 L805,59 L802,56 L802,38 L807,32 L813,24 L820,18 L826,15 L827,1 L831,0 L832,1 L832,14 L841,14 L842,1 L846,0 L847,2 L848,16 L856,20 L865,29 L867,35 L873,37 L873,57 L867,59 L865,65 L858,73 L852,77 L847,78 L847,293 L854,295 L864,304 L868,311 L873,314 L873,334 L867,335 L866,340 L859,349 L849,355 L847,355 L848,622 L850,623 L895,623 L903,607 L911,590 L913,587 L913,546 L915,542 L925,542 L925,513 L927,507 L928,500 L930,493 L932,483 L935,473 L940,461 L947,444 L952,434 L952,428 L950,424 L948,415 L946,406 L944,403 L944,400 L938,402 L929,409 L917,413 L907,413 L899,406 L897,401 L901,395 L907,390 L905,386 L911,378 L919,374 L937,373 L937,364 L935,358 L933,345 L932,341 L932,326 L934,316 L935,302 L939,290 L943,281 L952,272 L963,266 L965,266 L965,264 L967,263 L966,259 L959,256 L956,252 L953,244 L949,220 L949,206 L947,203 L947,193 L953,188 L962,185 L967,183 L988,182 L1002,189 L1009,196 L1012,200 L1015,210 L1015,227 L1013,233 L1012,242 L1011,244 L1009,244 L1008,250 L1004,251 L1006,254 L1015,255 L1023,260 L1027,268 L1032,277 L1041,287 L1045,295 L1045,309 L1043,314 L1041,324 L1040,325 L1038,335 L1035,346 L1032,358 L1031,359 L1031,372 L1033,374 L1037,386 L1039,389 L1040,397 L1042,402 L1042,431 L1037,442 L1033,448 L1035,454 L1038,463 L1040,472 L1042,476 L1044,485 L1046,495 L1048,499 L1049,507 L1051,510 L1053,520 L1057,526 L1063,534 L1072,551 L1076,562 L1081,574 L1084,581 L1086,589 L1090,604 L1092,617 L1093,624 L1103,623 L1103,356 L1093,350 L1086,343 L1083,337 L1083,335 L1079,334 L1078,315 L1079,312 L1083,310 L1089,301 L1098,294 L1103,293 L1103,80 L1094,74 L1088,69 L1083,60 L1079,58 L1078,39 L1079,36 L1083,34 L1089,24 L1097,18 L1103,14 L1104,1 L1107,0 L1110,2 L1111,14 L1117,14 L1118,1 L1122,0 L1123,2 L1123,16 L1130,18 L1140,27 L1145,35 L1149,36 L1150,38 L1150,56 L1147,59 L1144,60 L1140,67 L1136,72 L1126,78 L1124,79 L1124,292 L1132,296 L1141,305 L1143,308 L1143,311 L1149,312 L1150,314 L1150,332 L1147,335 L1144,335 L1142,341 L1135,349 L1126,355 L1123,355 L1124,543 L1125,546 L1126,623 L1144,623 L1145,480 L1139,478 L1139,433 L1140,432 L1197,431 L1197,415 L1205,411 L1213,410 L1237,410 L1239,409 L1247,409 L1256,410 L1256,408 L1258,407 L1265,407 L1268,413 L1272,415 L1273,432 L1381,431 L1381,357 L1371,351 L1365,346 L1361,340 L1359,336 L1355,334 L1354,315 L1355,312 L1360,310 L1364,303 L1373,295 L1379,292 L1380,289 L1381,81 L1378,78 L1370,74 L1361,64 L1360,59 L1355,58 L1354,39 L1355,36 L1360,33 L1366,24 L1374,18 L1380,14 L1381,2 L1385,0 L1386,1 L1387,15 L1393,14 L1394,2 L1398,0 L1400,5 L1400,13 L1404,17 L1411,21 L1419,30 L1421,34 L1425,36 L1426,38 L1426,56 L1423,59 L1420,61 L1416,68 L1407,76 L1400,80 L1400,286 L1402,293 L1410,297 L1417,304 L1420,309 L1420,311 L1425,312 L1426,314 L1426,332 L1423,335 L1420,338 L1416,345 L1408,352 L1401,356 L1399,356 L1400,361 L1400,430 L1401,431 L1480,432 L1482,436 L1482,473 L1480,478 L1474,480 L1474,624 L1479,626 L1488,626 L1484,622 L1484,608 L1485,601 L1487,597 L1479,590 L1478,588 L1478,496 L1481,494 L1489,494 L1489,477 L1494,468 L1498,464 L1501,463 L1501,453 L1502,450 L1510,447 L1548,447 L1553,449 L1555,452 L1556,463 L1561,466 L1561,468 L1564,469 L1564,471 L1566,471 L1567,473 L1567,495 L1577,495 L1579,498 L1579,590 L1576,593 L1571,595 L1570,599 L1572,601 L1573,620 L1570,626 L1579,625 L1581,624 L1656,623 L1655,544 L1657,540 L1657,356 L1646,350 L1638,341 L1636,336 L1631,334 L1630,315 L1631,312 L1637,311 L1639,305 L1648,296 L1656,292 L1657,290 L1657,80 L1646,73 L1638,64 L1637,59 L1631,58 L1630,39 L1631,36 L1637,35 L1638,30 L1646,21 L1653,17 L1657,14 L1658,1 L1662,0 L1663,2 L1663,15 L1671,14 L1671,2 L1675,0 L1677,2 L1678,15 L1689,22 L1695,29 L1698,34 L1702,38 L1702,56 L1699,59 L1697,59 L1695,65 L1688,73 L1678,79 L1678,291 L1679,293 L1688,298 L1695,306 L1697,310 L1701,312 L1702,314 L1702,332 L1697,338 L1693,344 L1685,352 L1678,356 L1678,624 L1752,624 L1755,626 L1763,626 L1761,622 L1762,603 L1765,597 L1757,592 L1754,587 L1755,582 L1756,575 L1754,571 L1754,498 L1756,495 L1765,495 L1765,477 L1773,466 L1777,463 L1778,455 L1779,450 L1782,448 L1787,447 L1827,447 L1831,451 L1832,460 L1834,465 L1839,467 L1843,473 L1844,494 L1853,495 L1855,497 L1856,572 L1855,590 L1850,595 L1846,597 L1846,600 L1848,600 L1849,606 L1849,621 L1848,626 L1858,625 L1863,623 L1882,623 L1882,558 L1883,549 L1883,543 L1887,541 L1933,542 L1933,356 L1923,350 L1915,341 L1913,335 L1907,333 L1907,321 L1908,313 L1913,310 L1919,301 L1926,295 L1933,293 L1933,80 L1922,72 L1917,67 L1913,60 L1908,57 L1907,45 L1907,39 L1911,35 L1913,35 L1915,30 L1922,22 L1927,18 L1932,16 L1933,14 L1934,1 L1938,0 L1939,1 L1940,14 L1948,14 L1948,2 L1950,0 L1953,0 L1954,5 L1954,13 L1955,16 L1963,20 L1971,28 L1975,35 L1978,37 L1978,57 L1973,62 L1969,68 L1962,75 L1956,78 L1954,78 L1954,293 L1960,295 L1968,301 L1975,311 L1978,313 L1978,333 L1974,337 L1969,345 L1961,352 L1954,356 L1954,542 L1999,542 L2002,545 L2002,624 L2028,624 L2031,626 L2326,626 L2328,627 L2328,671 L2321,675 L2322,680 L2357,681 L2359,684 L2359,930 L2358,934 L2356,935 L-412,935 L-414,934 L-414,684 L-412,681 L-371,681 L-371,674 L-376,673 L-379,671 L-379,627 L-375,625 L-235,625 L-235,632 L-371,631 L-371,667 L-365,666 L-235,666 L-235,673 L-343,673 L-344,681 L-247,681 L-248,685 L-246,686 L-408,686 L-407,929 L2353,930 L2353,687 L1081,686 L-228,686 L-230,681 L-50,680 L-50,675 L-51,674 L-230,673 L-230,667 L-24,666 L294,666 L295,664 L295,636 L296,632 L111,632 L-230,631 L-230,626 L-80,625 L-75,623 L-52,623 L-52,572 L-53,558 L-52,552 L-52,544 L-48,541 L-5,541 L-3,536 L-3,357 L-15,349 L-21,342 L-24,336 L-28,334 L-29,315 L-28,312 L-23,309 L-17,301 L-10,295 L-5,293 L-3,286 L-3,80 L-14,73 L-21,66 L-24,60 L-28,58 L-29,39 L-28,36 L-24,34 L-18,25 L-10,18 L-4,15 L-3,10 L-3,3 Z M1385,25 L1383,26 L1383,28 L1377,29 L1374,32 L1374,34 L1372,34 L1371,40 L1369,40 L1368,44 L1369,54 L1372,60 L1374,60 L1376,65 L1384,69 L1397,68 L1403,64 L1410,57 L1412,53 L1412,41 L1407,33 L1404,29 L1397,26 Z M0,26 L-6,29 L-6,31 L-9,32 L-9,34 L-11,34 L-14,39 L-14,54 L-11,60 L-6,64 L-2,68 L14,68 L20,64 L26,58 L29,52 L29,41 L24,33 L18,28 L15,26 Z M276,26 L268,31 L267,34 L265,34 L262,41 L262,54 L264,54 L265,61 L270,65 L277,68 L280,69 L292,68 L302,59 L305,53 L305,39 L296,29 L292,26 Z M553,26 L543,32 L538,41 L538,51 L544,63 L548,66 L553,68 L556,69 L567,69 L577,62 L581,54 L581,38 L578,37 L576,32 L567,26 Z M830,26 L822,31 L819,35 L819,37 L817,37 L815,46 L817,57 L819,57 L821,63 L830,69 L840,69 L849,66 L856,58 L860,47 L856,37 L854,32 L847,28 L845,28 L845,26 Z M1106,26 L1101,29 L1101,31 L1098,32 L1098,34 L1095,35 L1093,38 L1093,57 L1098,62 L1106,69 L1121,68 L1129,62 L1133,57 L1136,51 L1136,43 L1134,40 L1132,34 L1125,28 L1122,26 Z M1667,25 L1659,26 L1653,29 L1653,31 L1650,32 L1645,41 L1644,43 L1646,56 L1648,60 L1653,65 L1659,69 L1670,69 L1676,67 L1682,63 L1688,55 L1688,38 L1685,37 L1683,33 L1677,28 L1671,25 Z M1936,26 L1926,33 L1923,39 L1921,45 L1922,54 L1926,62 L1931,66 L1936,68 L1939,69 L1951,68 L1959,63 L1963,57 L1966,48 L1965,40 L1961,32 L1952,26 Z M1940,79 L1938,82 L1939,287 L1940,288 L1946,288 L1948,287 L1949,282 L1949,81 L1948,80 Z M3,80 L3,287 L4,288 L10,288 L11,287 L11,80 Z M280,80 L279,83 L280,288 L286,288 L288,286 L288,81 L287,80 Z M556,80 L555,83 L556,288 L563,288 L565,286 L565,80 Z M832,80 L832,287 L834,288 L841,288 L842,287 L842,80 Z M1110,80 L1109,83 L1110,287 L1111,288 L1117,288 L1118,287 L1118,80 Z M1387,80 L1386,81 L1386,286 L1387,288 L1393,288 L1394,287 L1394,80 Z M1663,80 L1662,83 L1663,288 L1669,288 L1671,287 L1671,80 Z M969,188 L959,191 L952,195 L952,202 L954,204 L954,219 L958,243 L962,251 L970,255 L972,259 L971,265 L966,270 L953,278 L948,283 L945,288 L940,303 L938,325 L937,329 L937,340 L939,348 L942,364 L942,377 L938,381 L925,381 L916,383 L916,391 L911,393 L904,399 L904,404 L908,408 L917,408 L927,404 L940,394 L945,393 L946,397 L948,397 L951,406 L953,413 L958,432 L957,442 L955,442 L949,457 L948,463 L946,463 L943,470 L941,478 L938,487 L937,489 L935,501 L934,502 L932,515 L931,516 L930,547 L927,563 L923,576 L918,588 L909,605 L900,624 L894,635 L891,639 L891,652 L875,652 L865,649 L859,647 L854,648 L853,649 L853,654 L860,660 L872,666 L879,669 L891,675 L904,678 L909,677 L913,672 L916,665 L924,662 L929,653 L935,641 L935,639 L937,639 L940,633 L944,626 L947,618 L947,615 L949,615 L950,610 L952,603 L955,591 L957,581 L959,575 L962,564 L966,552 L967,543 L968,533 L972,520 L974,516 L974,513 L976,513 L980,501 L980,498 L982,498 L986,493 L990,493 L993,497 L997,508 L1002,518 L1004,523 L1007,529 L1010,535 L1015,543 L1017,543 L1019,547 L1022,553 L1027,559 L1031,562 L1036,574 L1038,574 L1039,580 L1041,585 L1045,603 L1046,604 L1048,624 L1051,637 L1056,649 L1063,658 L1061,663 L1054,667 L1048,670 L1036,674 L1035,679 L1036,680 L1069,680 L1081,678 L1087,674 L1088,668 L1088,662 L1087,658 L1092,653 L1091,643 L1089,636 L1088,623 L1086,616 L1085,604 L1083,599 L1081,590 L1078,580 L1071,563 L1067,553 L1062,543 L1057,534 L1050,525 L1047,520 L1045,514 L1043,514 L1043,505 L1041,502 L1039,492 L1037,486 L1036,480 L1034,474 L1033,469 L1032,468 L1031,461 L1029,459 L1028,452 L1026,450 L1026,445 L1028,441 L1030,441 L1034,437 L1037,430 L1037,410 L1035,407 L1034,393 L1032,391 L1030,385 L1026,376 L1024,364 L1026,352 L1028,347 L1030,340 L1032,330 L1034,325 L1036,318 L1040,309 L1040,296 L1035,288 L1026,278 L1021,267 L1019,263 L1011,260 L1003,258 L998,251 L998,246 L1003,245 L1007,235 L1007,203 L998,194 L988,190 L984,188 Z M281,301 L269,306 L265,311 L262,317 L262,330 L265,336 L270,341 L275,345 L292,344 L300,339 L305,331 L305,317 L300,309 L296,307 L296,305 L285,301 Z M2,302 L-6,305 L-6,307 L-9,308 L-9,310 L-11,310 L-15,319 L-14,332 L-7,341 L-1,345 L9,346 L17,343 L20,341 L20,339 L23,338 L28,331 L29,323 L29,317 L24,309 L19,305 L12,302 Z M555,302 L544,308 L543,313 L541,313 L538,320 L538,327 L541,336 L546,340 L547,342 L552,344 L564,345 L573,342 L580,334 L581,327 L581,314 L572,305 L565,302 Z M831,302 L825,305 L825,307 L822,308 L822,310 L819,311 L819,313 L817,313 L816,320 L816,328 L818,335 L820,339 L824,342 L829,344 L832,345 L847,344 L856,335 L859,327 L860,322 L858,319 L856,312 L848,305 L842,302 Z M1108,302 L1101,305 L1101,307 L1098,308 L1098,310 L1095,311 L1093,315 L1093,333 L1099,341 L1104,342 L1104,344 L1108,345 L1123,344 L1130,338 L1136,328 L1136,320 L1130,308 L1123,304 L1119,302 Z M1385,302 L1375,307 L1374,310 L1372,310 L1371,316 L1369,316 L1368,320 L1369,330 L1373,338 L1382,345 L1400,344 L1409,335 L1412,328 L1412,317 L1407,309 L1403,307 L1403,305 L1395,302 Z M1662,302 L1652,307 L1647,314 L1645,318 L1645,329 L1648,336 L1653,340 L1658,345 L1675,344 L1683,339 L1688,331 L1688,316 L1682,308 L1679,307 L1679,305 L1672,302 Z M1938,302 L1938,304 L1932,305 L1924,312 L1922,320 L1921,322 L1922,331 L1925,336 L1930,342 L1936,345 L1947,345 L1956,342 L1963,335 L1966,325 L1965,317 L1962,312 L1955,305 L1950,302 Z M5,356 L3,358 L3,539 L5,541 L10,541 L11,540 L11,357 Z M281,356 L280,357 L280,541 L287,541 L288,538 L288,358 Z M556,356 L556,432 L563,432 L565,431 L565,358 L559,356 Z M1388,356 L1386,358 L1386,430 L1387,432 L1393,432 L1394,431 L1394,357 Z M1664,356 L1663,357 L1663,540 L1664,541 L1671,540 L1671,357 Z M1940,356 L1939,357 L1939,540 L1945,542 L1948,540 L1949,358 L1942,356 Z M832,357 L832,539 L836,541 L841,541 L842,540 L842,357 Z M1110,357 L1110,540 L1117,541 L1118,540 L1118,357 Z M716,418 L679,419 L678,422 L679,432 L742,432 L743,423 L743,419 Z M1223,418 L1203,419 L1202,422 L1203,431 L1204,432 L1264,432 L1265,431 L1265,419 L1241,418 Z M470,436 L468,440 L469,474 L799,474 L801,472 L801,438 L800,437 Z M1145,436 L1143,439 L1144,474 L1474,474 L1476,472 L1476,438 L1475,437 Z M124,455 L124,461 L125,462 L133,463 L157,463 L165,462 L167,460 L167,455 Z M402,455 L402,462 L409,463 L435,463 L442,461 L443,460 L443,455 Z M1508,455 L1508,462 L1516,463 L1541,463 L1548,462 L1550,459 L1550,455 Z M1785,455 L1784,461 L1785,462 L1792,463 L1819,463 L1825,461 L1826,455 Z M130,470 L129,473 L130,550 L159,550 L161,545 L161,471 L160,470 Z M406,470 L405,473 L406,550 L435,550 L437,545 L437,471 L436,470 Z M1513,470 L1512,473 L1513,550 L1542,550 L1544,545 L1544,471 L1543,470 Z M1790,470 L1789,471 L1789,548 L1791,550 L1818,550 L1820,545 L1820,471 L1819,470 Z M475,479 L475,679 L477,681 L490,681 L491,680 L491,479 Z M496,479 L496,623 L497,624 L547,624 L550,622 L550,546 L551,542 L551,479 Z M556,479 L555,482 L556,541 L563,541 L565,539 L566,480 L565,479 Z M570,479 L570,543 L571,623 L572,624 L645,625 L648,627 L656,626 L656,603 L659,597 L654,593 L650,592 L649,583 L650,581 L650,574 L649,571 L649,499 L650,496 L653,495 L658,495 L659,494 L659,479 Z M684,479 L683,482 L683,547 L684,550 L688,551 L712,550 L713,549 L713,479 Z M738,479 L738,494 L739,495 L747,496 L748,497 L749,572 L748,574 L748,582 L749,583 L749,588 L744,593 L738,597 L739,600 L741,600 L741,626 L751,626 L753,625 L772,624 L773,617 L773,479 Z M779,479 L779,680 L780,681 L793,681 L794,673 L794,479 Z M1150,479 L1150,679 L1152,681 L1165,681 L1166,680 L1166,479 Z M1171,479 L1171,623 L1172,624 L1200,625 L1203,627 L1209,626 L1209,600 L1211,599 L1210,595 L1204,591 L1203,590 L1202,495 L1213,495 L1214,487 L1214,479 Z M1237,479 L1236,482 L1237,550 L1266,550 L1268,545 L1268,479 Z M1291,479 L1290,482 L1291,495 L1301,496 L1302,499 L1302,592 L1296,594 L1293,596 L1294,600 L1295,604 L1295,622 L1293,626 L1303,626 L1308,624 L1377,624 L1379,623 L1380,541 L1381,540 L1382,480 L1381,479 Z M1386,479 L1386,538 L1390,542 L1393,542 L1394,540 L1395,480 L1394,479 Z M1399,479 L1399,538 L1401,547 L1401,622 L1402,624 L1447,624 L1448,623 L1448,479 Z M1453,479 L1453,680 L1454,681 L1468,681 L1469,680 L1469,479 Z M656,499 L655,500 L655,588 L663,592 L664,594 L733,594 L734,591 L739,589 L743,585 L743,501 L739,500 L738,573 L734,580 L725,586 L695,587 L674,586 L665,583 L665,581 L662,578 L660,573 L659,502 Z M380,500 L377,504 L378,585 L379,588 L385,591 L388,594 L457,594 L458,591 L462,589 L466,587 L467,581 L467,501 L462,500 L461,514 L461,536 L462,538 L462,562 L461,573 L459,580 L456,581 L456,583 L450,585 L448,586 L424,587 L399,586 L389,582 L384,575 L383,502 Z M1208,500 L1207,501 L1207,570 L1208,571 L1208,587 L1219,594 L1286,594 L1296,586 L1296,571 L1298,568 L1298,502 L1297,500 L1292,500 L1291,510 L1291,568 L1290,578 L1287,579 L1285,582 L1278,586 L1247,587 L1226,586 L1218,582 L1215,578 L1213,559 L1213,538 L1214,531 L1213,501 Z M1763,499 L1762,500 L1762,588 L1770,592 L1771,594 L1840,594 L1841,591 L1846,589 L1850,585 L1850,501 L1846,500 L1845,505 L1845,541 L1844,574 L1842,579 L1834,584 L1834,586 L1802,587 L1781,586 L1771,581 L1767,575 L1766,502 Z M104,500 L100,502 L100,569 L102,572 L102,586 L106,590 L112,594 L179,594 L190,587 L190,572 L191,568 L191,503 L190,500 L185,500 L184,514 L184,536 L186,541 L185,569 L183,578 L183,580 L179,582 L174,584 L174,586 L145,587 L123,586 L116,584 L110,580 L108,577 L107,550 L107,502 Z M1487,500 L1484,502 L1484,570 L1485,572 L1486,588 L1492,591 L1494,591 L1495,594 L1563,594 L1565,593 L1565,591 L1570,589 L1573,587 L1574,574 L1574,502 L1573,500 L1568,501 L1568,571 L1566,580 L1563,581 L1563,583 L1557,585 L1555,586 L1523,587 L1503,586 L1494,581 L1491,577 L1490,502 Z M987,502 L984,508 L984,511 L982,511 L977,525 L973,535 L973,542 L1006,542 L1006,539 L1002,532 L1000,527 L998,521 L996,520 L994,514 L992,514 L992,509 L990,507 L988,502 Z M6,547 L0,549 L0,606 L-7,605 L-11,607 L-44,607 L-46,611 L-45,621 L-41,622 L-10,622 L-7,624 L-1,624 L0,622 L2,624 L12,624 L13,623 L13,610 L18,611 L18,617 L14,619 L15,624 L23,624 L24,623 L46,622 L61,622 L62,614 L62,608 L60,607 L25,607 L22,605 L16,605 L13,607 L14,585 L13,580 L14,558 L13,553 L13,548 Z M279,547 L277,548 L277,622 L279,624 L289,624 L290,623 L290,548 L289,547 Z M556,547 L554,550 L555,623 L556,624 L564,624 L566,623 L566,548 L565,547 Z M832,547 L831,552 L831,622 L832,624 L841,624 L842,623 L843,549 L842,547 Z M1108,547 L1107,552 L1107,622 L1108,624 L1117,624 L1120,622 L1120,548 L1114,547 Z M1387,547 L1383,549 L1384,623 L1385,624 L1394,624 L1397,623 L1397,548 L1396,547 Z M1663,547 L1661,548 L1661,622 L1662,624 L1671,624 L1673,623 L1673,548 L1672,547 Z M1939,547 L1938,548 L1938,606 L1935,605 L1927,605 L1925,606 L1925,608 L1923,607 L1891,607 L1888,609 L1889,620 L1893,622 L1924,622 L1927,624 L1936,624 L1939,624 L1947,624 L1950,623 L1951,624 L1959,624 L1959,622 L1996,622 L1997,620 L1997,608 L1995,607 L1959,606 L1958,605 L1951,605 L1950,606 L1949,548 L1948,547 Z M-31,556 L-31,560 L-29,571 L-26,579 L-5,579 L-4,578 L-4,557 Z M20,556 L18,557 L18,578 L19,579 L40,579 L43,577 L45,566 L47,561 L47,557 Z M1904,556 L1902,559 L1905,567 L1906,574 L1909,579 L1931,579 L1933,578 L1934,558 L1933,557 Z M129,557 L129,564 L131,567 L161,566 L161,557 Z M406,557 L405,560 L407,567 L438,566 L439,558 L438,557 Z M682,557 L681,560 L682,567 L684,568 L715,567 L716,561 L716,557 Z M970,557 L968,565 L967,566 L965,576 L964,579 L1005,579 L1008,575 L1012,560 L1012,557 Z M1236,557 L1236,566 L1237,567 L1267,567 L1268,561 L1268,557 Z M1513,557 L1512,560 L1513,567 L1515,568 L1543,567 L1545,560 L1544,557 Z M1789,557 L1788,560 L1789,567 L1791,568 L1821,567 L1823,560 L1822,557 Z M1954,557 L1953,559 L1954,578 L1955,579 L1975,579 L1978,576 L1980,565 L1982,560 L1982,557 Z M-43,558 L-45,561 L-44,567 L-41,567 L-40,560 Z M920,558 L919,559 L919,566 L922,565 L923,560 L922,558 Z M1892,558 L1890,560 L1891,567 L1894,567 L1895,560 Z M59,558 L56,561 L57,566 L61,567 L62,560 Z M1990,559 L1990,566 L1991,567 L1996,567 L1997,566 L1997,560 L1996,559 Z M1021,560 L1020,563 L1021,567 L1025,566 L1024,561 Z M-46,572 L-46,590 L-45,593 L-42,594 L-40,592 L-40,572 Z M55,572 L55,591 L56,593 L60,594 L62,590 L62,572 Z M919,572 L920,574 Z M1021,572 L1020,575 L1021,593 L1025,593 L1026,588 L1026,572 Z M1890,572 L1889,575 L1890,593 L1893,594 L1895,590 L1895,572 Z M1990,572 L1990,593 L1993,594 L1997,592 L1997,572 Z M1032,577 L1031,581 L1031,601 L1032,622 L1033,624 L1042,624 L1043,623 L1043,614 L1040,597 L1038,593 L1036,582 L1034,577 Z M-35,581 L-35,594 L-34,595 L-5,595 L-4,594 L-4,584 L-31,583 L-31,581 Z M122,581 L122,582 L132,582 L132,581 Z M140,581 L140,582 L145,582 L145,581 Z M154,581 L154,582 L162,582 L162,581 Z M399,581 L399,582 L408,582 L408,581 Z M416,581 L416,582 L421,582 L421,581 Z M701,581 L701,582 L706,582 L706,581 Z M713,581 L717,582 Z M1241,581 L1245,582 Z M1253,581 L1253,582 L1258,582 L1258,581 Z M1517,581 L1521,582 Z M1538,581 L1538,582 L1549,582 L1549,581 Z M1900,581 L1900,595 L1903,596 L1932,595 L1933,594 L1934,585 L1933,584 L1908,583 L1904,581 Z M48,581 L45,583 L18,584 L18,594 L22,596 L49,595 L50,594 L51,582 Z M1011,581 L1007,583 L963,584 L961,588 L961,595 L964,596 L1013,595 L1015,593 L1015,581 Z M1983,581 L1979,583 L1954,584 L1953,586 L1954,594 L1955,595 L1984,595 L1985,593 L1985,581 Z M468,593 L462,597 L463,600 L465,600 L465,621 L464,626 L469,626 L470,625 L471,594 Z M-44,598 L-44,602 L-41,603 L-37,601 L-41,598 Z M1021,598 L1020,602 L1025,602 L1025,599 Z M1891,598 L1889,599 L1889,602 L1898,602 L1894,598 Z M1991,598 L1986,602 L1996,602 L1997,599 Z M58,598 L54,600 L54,602 L61,602 L62,599 Z M20,601 L20,603 L22,603 L22,601 Z M959,601 L959,603 L961,603 L961,601 Z M110,604 L108,610 L108,617 L109,618 L181,618 L183,616 L183,607 L182,605 Z M386,604 L384,607 L384,617 L385,618 L458,618 L460,617 L460,606 L458,605 Z M662,604 L661,605 L661,618 L736,618 L737,617 L737,606 L736,605 Z M1217,604 L1215,606 L1214,617 L1216,618 L1288,618 L1289,611 L1288,605 Z M1493,604 L1492,605 L1492,618 L1564,618 L1566,617 L1566,606 L1565,605 Z M1769,604 L1768,605 L1768,618 L1843,618 L1844,617 L1844,607 L1842,605 Z M958,605 L955,608 L954,618 L953,622 L956,622 L956,624 L960,625 L985,624 L989,622 L1023,622 L1025,620 L1025,608 L1023,607 L990,607 L988,608 L988,606 L986,605 Z M304,631 L303,635 L304,667 L469,667 L470,666 L470,632 L469,631 Z M497,631 L496,632 L496,666 L497,667 L772,667 L773,664 L773,632 L772,631 Z M799,631 L799,666 L801,668 L861,667 L861,665 L855,661 L850,657 L846,650 L851,645 L853,643 L860,643 L876,648 L885,648 L886,645 L886,639 L890,634 L889,631 Z M949,631 L948,634 L946,634 L942,641 L942,643 L940,643 L939,649 L937,649 L936,655 L934,655 L933,661 L931,661 L930,665 L931,667 L970,667 L972,665 L972,632 L970,631 Z M979,631 L979,667 L1038,667 L1048,666 L1057,661 L1055,656 L1053,654 L1047,638 L1045,632 L1043,631 Z M1094,631 L1093,635 L1096,648 L1098,655 L1094,657 L1093,658 L1093,663 L1098,668 L1144,667 L1145,666 L1145,632 L1144,631 Z M1172,631 L1171,632 L1171,666 L1172,667 L1447,667 L1448,666 L1448,632 L1447,631 Z M1475,631 L1473,634 L1474,667 L1645,667 L1647,665 L1648,633 L1645,631 Z M1654,631 L1654,667 L2321,667 L2323,666 L2324,633 L2321,631 Z M-364,672 L-365,673 L-365,681 L-350,681 L-349,674 L-350,673 Z M-22,672 L-23,673 L-23,681 L268,681 L269,674 L268,673 Z M311,672 L310,673 L310,681 L325,681 L326,674 L325,673 Z M332,672 L331,673 L331,681 L469,681 L470,680 L470,674 L469,673 Z M1661,672 L1660,673 L1660,681 L1675,681 L1676,674 L1675,673 Z M1682,672 L1681,673 L1681,681 L1974,681 L1976,675 L1975,673 Z M-44,673 L-45,674 L-44,681 L-32,681 L-31,680 L-31,674 L-32,673 Z M277,673 L276,677 L277,681 L289,681 L290,680 L290,674 L289,673 Z M297,673 L295,674 L296,680 L297,681 L304,681 L305,674 L302,673 Z M496,673 L496,680 L497,681 L623,681 L625,680 L626,675 L624,673 Z M631,673 L630,674 L631,681 L644,681 L646,679 L646,674 L644,673 Z M652,673 L651,674 L651,680 L652,681 L772,681 L773,674 L772,673 Z M799,673 L799,680 L800,681 L890,681 L886,677 L876,673 Z M918,673 L915,676 L915,679 L913,679 L913,681 L943,681 L945,675 L944,673 Z M951,673 L950,674 L950,679 L952,681 L964,681 L965,680 L965,674 L964,673 Z M972,673 L970,677 L972,681 L979,681 L980,680 L980,674 L979,673 Z M985,673 L984,677 L985,681 L1000,681 L1001,680 L1001,674 L1000,673 Z M1006,673 L1005,677 L1006,681 L1027,681 L1029,677 L1028,673 Z M1094,673 L1090,681 L1144,681 L1145,680 L1145,674 L1144,673 Z M1172,673 L1171,674 L1171,680 L1172,681 L1299,681 L1301,675 L1299,673 Z M1306,673 L1305,674 L1306,681 L1319,681 L1321,679 L1321,674 L1320,673 Z M1327,673 L1326,674 L1326,680 L1327,681 L1447,681 L1448,680 L1448,674 L1447,673 Z M1474,673 L1474,681 L1618,681 L1620,678 L1619,673 Z M1626,673 L1625,674 L1625,679 L1627,681 L1639,681 L1641,675 L1640,673 Z M1647,673 L1645,677 L1647,681 L1654,681 L1655,674 L1651,673 Z M1981,673 L1980,678 L1981,681 L1994,681 L1996,680 L1996,674 L1995,673 Z M2002,673 L2001,674 L2002,681 L2293,681 L2295,678 L2294,673 Z M2301,673 L2300,678 L2302,681 L2314,681 L2316,675 L2315,673 Z " transform="translate(450,251)"/>
    <path id="linework-0002" d="M0,0 L1,3 L1,10 L-1,8 L-1,1 Z " transform="translate(449,861)"/>
    <path id="linework-0003" d="M0,0 L4,0 L4,9 L-1,8 L0,3 Z " transform="translate(2384,861)"/>
    <path id="linework-0004" d="M0,0 L4,1 L3,7 L0,10 Z " transform="translate(2399,861)"/>
    <path id="linework-0005" d="M0,0 L1,2 L-2,1 Z " transform="translate(213,935)"/>
  </g>
</svg>
