<svg xmlns="http://www.w3.org/2000/svg" viewBox="0 0 2916 1548" width="100%" height="100%" preserveAspectRatio="xMidYMid meet">
  <!-- split-the-views layered scalable export -->
  <g id="layer-linework" fill="#1a1a1a">
    <path id="linework-0001" d="M0,0 L21,0 L24,3 L25,129 L29,134 L29,147 L25,154 L24,553 L20,557 L20,559 L24,560 L24,584 L18,585 L17,137 L17,7 L6,6 L5,7 L4,127 L5,132 L12,132 L14,135 L14,153 L12,157 L6,157 L5,159 L4,588 L1,590 L-2,590 L-2,167 L-9,170 L-12,173 L-15,178 L-18,181 L-22,179 L-27,173 L-22,168 L-18,167 L-17,164 L-15,164 L-15,162 L-13,161 L-12,157 L-30,158 L-35,167 L-39,172 L-41,178 L-48,181 L-50,187 L-56,189 L-58,190 L-84,191 L-105,194 L-121,191 L-143,190 L-152,189 L-154,182 L-153,101 L-146,99 L-118,97 L-107,95 L-94,96 L-89,97 L-66,98 L-57,99 L-52,102 L-50,103 L-48,108 L-41,109 L-40,112 L-39,124 L-36,131 L-6,131 L-6,129 L-2,128 L-2,2 Z M-99,101 L-100,102 L-100,146 L-99,146 L-98,136 L-96,132 L-91,130 L-82,129 L-73,132 L-65,132 L-63,131 L-63,106 L-65,103 L-92,102 Z M-115,102 L-136,103 L-148,105 L-148,183 L-144,184 L-140,185 L-109,187 L-108,181 L-108,105 L-109,102 Z M-49,114 L-50,131 L-46,132 L-45,131 L-45,117 L-47,114 Z M-88,133 L-94,140 L-94,147 L-92,147 L-91,152 L-83,153 L-73,152 L-33,152 L-27,150 L-27,139 L-28,137 L-78,136 L-82,133 Z M-21,136 L-22,137 L-22,152 L-9,152 L1,151 L8,152 L9,150 L9,139 L8,137 L-4,137 Z M-100,148 L-100,187 L-98,188 L-96,187 L-64,185 L-63,183 L-63,158 L-64,157 L-78,157 L-81,159 L-87,158 L-95,154 L-99,148 Z M-48,156 L-49,157 L-50,171 L-48,175 L-43,170 L-39,163 L-39,159 L-37,159 L-37,157 Z " transform="translate(2231,36)"/>
    <path id="linework-0002" d="M0,0 L18,0 L22,2 L23,40 L25,40 L26,42 L26,58 L23,64 L23,201 L17,203 L16,65 L14,59 L15,51 L14,42 L16,36 L17,33 L17,6 L2,5 L2,35 L4,40 L11,43 L11,64 L10,65 L2,65 L2,380 L17,381 L17,207 L23,209 L23,381 L24,384 L24,503 L25,504 L136,505 L136,507 L168,507 L167,503 L172,502 L180,502 L183,500 L186,500 L186,478 L180,477 L179,474 L183,467 L188,462 L188,436 L186,430 L185,462 L176,472 L173,477 L168,477 L169,472 L178,460 L178,438 L170,422 L170,419 L168,419 L164,409 L161,403 L161,401 L159,401 L159,382 L161,381 L254,381 L257,384 L257,400 L252,410 L244,427 L240,435 L240,462 L248,472 L249,474 L249,507 L261,507 L265,509 L266,573 L265,575 L254,575 L255,590 L344,590 L344,575 L335,575 L334,574 L334,509 L337,507 L463,506 L465,505 L524,505 L519,500 L518,495 L518,472 L519,469 L523,467 L526,463 L555,463 L554,456 L554,433 L551,434 L543,431 L539,426 L537,425 L536,420 L536,268 L537,265 L539,264 L546,264 L546,241 L549,240 L577,240 L576,89 L583,89 L583,263 L584,268 L583,311 L583,380 L597,380 L597,86 L603,84 L603,239 L622,240 L625,241 L626,243 L626,264 L632,264 L635,267 L635,423 L634,425 L632,425 L631,428 L629,428 L628,431 L621,433 L617,433 L618,463 L645,463 L652,469 L651,473 L643,472 L642,476 L644,476 L644,492 L642,497 L651,496 L653,498 L648,505 L709,504 L718,505 L718,507 L845,507 L848,510 L848,573 L847,575 L843,576 L837,575 L837,590 L875,590 L880,592 L880,967 L879,968 L-1615,968 L-1616,963 L-1615,593 L-1614,591 L-1611,590 L-1368,589 L-1367,285 L-1376,284 L-1377,283 L-1377,217 L-1375,216 L-1130,216 L-1131,211 L-1130,189 L-1122,185 L-1120,183 L-1111,183 L-1109,185 L-1030,186 L-1030,180 L-1027,177 L-1020,180 L-1018,185 L-1014,186 L-1014,180 L-1006,177 L-1003,179 L-1003,185 L-999,186 L-999,179 L-998,178 L-992,178 L-988,181 L-988,186 L-983,185 L-982,180 L-979,178 L-973,178 L-971,181 L-971,186 L-966,186 L-967,181 L-966,178 L-960,178 L-956,180 L-954,186 L-945,188 L-943,192 L-943,215 L-900,216 L-900,200 L-897,198 L-883,197 L-839,197 L-834,195 L-832,193 L-826,193 L-823,195 L-823,197 L-775,197 L-761,198 L-758,200 L-757,203 L-757,215 L-723,216 L-724,210 L-724,202 L-723,195 L-721,193 L-705,192 L-703,192 L-701,186 L-696,185 L-689,186 L-678,185 L-669,186 L-667,187 L-666,192 L-660,192 L-660,187 L-658,186 L-627,185 L-623,187 L-622,192 L-615,192 L-608,194 L-607,197 L-607,215 L-361,216 L-359,217 L-359,282 L-361,284 L-370,284 L-369,590 L-237,590 L-237,575 L-246,575 L-247,571 L-246,508 L-244,507 L-117,506 L-112,504 L-7,504 L-6,382 L-4,380 L-4,74 L-13,81 L-20,89 L-24,89 L-27,86 L-28,82 L-27,79 L-17,71 L-13,65 L-27,66 L-31,65 L-33,69 L-38,78 L-44,86 L-48,89 L-51,89 L-53,95 L-58,98 L-79,100 L-87,101 L-123,101 L-134,99 L-155,98 L-156,97 L-157,87 L-157,13 L-156,10 L-154,9 L-127,6 L-110,5 L-104,4 L-103,5 L-69,7 L-60,8 L-53,11 L-51,18 L-44,19 L-41,28 L-39,40 L-10,40 L-5,38 L-4,36 L-3,1 Z M-128,11 L-148,14 L-149,17 L-149,93 L-124,95 L-120,96 L-111,96 L-110,94 L-111,12 L-112,11 Z M-102,11 L-103,12 L-103,45 L-101,46 L-93,39 L-86,37 L-80,39 L-76,41 L-66,41 L-64,40 L-64,15 L-68,13 L-81,11 Z M-58,19 L-57,21 Z M-58,22 L-58,33 L-57,33 L-57,22 Z M-52,23 L-52,41 L-49,42 L-46,41 L-46,36 L-47,35 L-48,25 L-49,23 Z M-58,35 L-57,39 Z M-88,43 L-94,45 L-95,49 L-95,56 L-91,61 L-87,63 L-83,62 L-80,61 L-29,60 L-29,49 L-30,47 L-36,46 L-80,46 L-86,43 Z M-21,46 L-24,49 L-24,60 L6,60 L6,48 L5,47 Z M-102,58 L-103,60 L-103,96 L-90,96 L-73,94 L-64,93 L-64,66 L-65,65 L-78,65 L-80,67 L-93,68 L-94,65 L-99,60 Z M-52,65 L-52,85 L-49,84 L-45,79 L-42,70 L-39,69 L-38,66 L-39,65 Z M-58,67 L-58,72 L-57,72 L-57,67 Z M-58,73 L-58,84 L-57,84 L-57,73 Z M-58,86 L-57,90 Z M-1101,193 L-1124,194 L-1125,195 L-1125,216 L-948,216 L-948,195 L-950,193 Z M-894,203 L-895,204 L-896,215 L-895,216 L-762,216 L-762,205 L-763,204 L-772,203 Z M-717,205 L-718,208 L-614,208 L-613,206 Z M-717,212 L-718,216 L-715,217 L-612,216 L-613,213 Z M-1372,221 L-1373,278 L-1372,279 L-365,279 L-364,277 L-365,222 L-367,221 Z M558,247 L557,248 L558,257 L560,264 L576,264 L577,263 L577,249 L576,248 Z M604,248 L603,249 L603,259 L605,260 L606,254 L606,249 Z M551,250 L552,252 Z M620,250 L619,264 L622,263 L622,251 Z M551,253 L552,255 Z M612,253 L611,254 L611,259 L613,258 L613,253 Z M551,256 L550,263 L554,264 L552,256 Z M611,260 L610,263 L613,264 Z M-1360,284 L-1361,285 L-1361,590 L-1357,591 L-1336,590 L-1335,589 L-1335,285 L-1336,284 Z M-1330,284 L-1330,590 L-1327,591 L-888,590 L-887,589 L-887,285 L-888,284 Z M-880,284 L-881,285 L-881,589 L-877,591 L-856,590 L-855,589 L-855,285 L-856,284 Z M-850,284 L-850,590 L-847,591 L-407,590 L-406,588 L-406,285 L-408,284 Z M-400,284 L-401,285 L-401,589 L-397,591 L-376,590 L-375,589 L-375,285 L-376,284 Z M563,284 L561,285 L561,310 L563,312 L568,312 L570,310 L570,286 L568,284 Z M576,285 L575,290 L575,308 L577,310 L577,285 Z M563,317 L562,318 L562,420 L563,421 L575,421 L576,420 L576,383 L577,379 L577,319 L574,317 Z M-1,386 L-2,388 L-2,504 L-1,505 L17,505 L19,504 L19,388 L18,386 Z M581,386 L580,388 L580,503 L581,505 L598,505 L600,504 L600,387 L599,386 Z M167,394 L167,396 L170,396 L170,394 Z M181,394 L181,396 L251,396 L251,394 Z M168,400 L168,403 L170,409 L172,409 L173,415 L179,426 L180,422 L179,415 L176,409 L173,403 Z M182,401 L183,406 L191,423 L194,424 L196,410 L198,408 L198,402 L197,401 Z M233,401 L233,408 L237,414 L239,424 L242,420 L245,413 L248,407 L249,406 L249,401 Z M212,404 L204,409 L200,414 L199,422 L199,439 L198,461 L188,474 L187,500 L188,501 L243,501 L244,498 L243,474 L234,462 L233,458 L232,436 L232,423 L230,412 L224,407 L222,407 L222,405 L220,404 Z M562,428 L560,435 L561,438 L576,438 L576,429 L574,428 Z M609,432 L608,433 L608,438 L612,438 L611,433 Z M526,473 L525,474 L525,495 L526,496 L575,496 L576,495 L576,474 L575,473 Z M605,473 L604,475 L604,495 L605,496 L638,496 L639,491 L639,475 L637,473 Z M190,506 Z M200,506 L200,507 L218,507 L218,506 Z M224,506 Z M239,506 Z M-241,512 L-241,570 L258,570 L260,568 L260,514 L258,512 Z M341,512 L340,513 L340,569 L345,570 L839,570 L840,563 L840,514 L839,512 Z M225,574 L224,575 L224,590 L227,591 L244,591 L248,590 L249,584 L249,577 L248,575 Z M351,574 L350,575 L350,590 L353,591 L373,591 L375,588 L375,577 L374,575 Z M-230,575 L-231,576 L-231,589 L-226,591 L-205,590 L-204,581 L-205,575 Z M-199,575 L-200,577 L-200,588 L-198,591 L214,591 L217,589 L217,576 L216,575 Z M383,575 L383,590 L386,591 L796,591 L798,588 L798,577 L797,575 Z M806,575 L806,590 L809,591 L826,591 L830,589 L830,576 L829,575 Z M-1608,595 L-1610,597 L-1610,963 L875,963 L875,597 L874,596 Z " transform="translate(1652,542)"/>
    <path id="linework-0003" d="M0,0 L3,3 L3,14 L0,14 Z " transform="translate(1834,1023)"/>
  </g>
  <g id="layer-dimensions" fill="#3a4fd6">
    <path id="dimensions-0001" d="M0,0 L10,0 L10,4 L3,3 L3,8 L9,10 L12,14 L11,20 L7,22 L0,22 L-2,20 L-2,17 L7,18 L7,13 L2,12 L-2,8 L-1,1 Z " transform="translate(2434,468)"/>
    <path id="dimensions-0002" d="M0,0 L5,1 L4,5 L5,9 L4,10 L3,20 L-1,21 L-2,17 L-2,11 L-4,7 L-1,3 Z " transform="translate(2487,468)"/>
    <path id="dimensions-0003" d="M0,0 L4,1 L3,6 L3,10 L2,11 L1,20 L-3,21 L-4,17 L-4,11 L-5,7 Z " transform="translate(2499,468)"/>
    <path id="dimensions-0004" d="M0,0 L3,0 L4,16 L2,22 L-1,21 L-1,1 Z " transform="translate(2523,468)"/>
    <path id="dimensions-0005" d="M0,0 L3,1 L3,21 L1,22 L-9,22 L-12,19 L-13,13 L-10,6 L-1,6 L-1,1 Z M-8,10 L-9,17 L-4,18 L-1,16 L-2,11 L-3,10 Z " transform="translate(2541,468)"/>
    <path id="dimensions-0006" d="M0,0 L3,1 L4,19 L3,21 L-1,20 L-1,2 Z " transform="translate(2589,468)"/>
    <path id="dimensions-0007" d="M0,0 L3,1 L2,3 L0,3 Z " transform="translate(2718,468)"/>
    <path id="dimensions-0008" d="M0,0 L3,0 L4,5 L11,6 L15,10 L15,21 L13,22 L11,21 L10,11 L5,10 L4,19 L3,21 L0,21 L-1,2 Z " transform="translate(2742,468)"/>
    <path id="dimensions-0009" d="M0,0 L3,3 L3,20 L1,22 L-10,22 L-14,15 L-12,9 L-10,6 L-2,6 Z M-7,10 L-10,13 L-9,17 L-3,18 L-2,17 L-2,11 Z " transform="translate(2800,468)"/>
    <path id="dimensions-0010" d="M0,0 L3,1 L4,5 L12,6 L15,9 L17,12 L21,6 L31,6 L34,9 L34,20 L32,22 L21,22 L17,16 L13,21 L12,22 L1,22 L-1,20 L-1,2 Z M6,10 L4,12 L4,17 L10,18 L12,16 L11,11 Z M24,10 L21,13 L22,17 L28,18 L29,17 L29,11 Z " transform="translate(2811,468)"/>
    <path id="dimensions-0011" d="M0,0 L5,1 L7,5 L5,7 L4,13 L7,14 L7,17 L4,18 L1,15 L-1,6 L-2,3 Z " transform="translate(2760,472)"/>
    <path id="dimensions-0012" d="M0,0 L7,0 L10,3 L9,6 L2,5 L1,10 L6,11 L9,10 L10,13 L7,16 L-1,16 L-5,10 L-4,4 Z " transform="translate(2453,474)"/>
    <path id="dimensions-0013" d="M0,0 L10,0 L13,2 L13,14 L11,16 L0,16 L-4,10 L-3,5 Z M3,4 L0,7 L1,11 L7,12 L8,11 L8,5 Z " transform="translate(2469,474)"/>
    <path id="dimensions-0014" d="M0,0 L7,0 L12,5 L12,11 L8,16 L0,16 L-4,12 L-4,3 Z M1,4 L0,11 L5,12 L8,10 L7,5 Z " transform="translate(2508,474)"/>
    <path id="dimensions-0015" d="M0,0 L11,0 L14,3 L16,6 L21,0 L28,0 L32,3 L33,11 L28,16 L20,16 L16,10 L12,15 L11,16 L3,17 L1,22 L-1,22 L-2,20 L-2,3 Z M5,4 L3,6 L3,11 L9,12 L11,8 L9,4 Z M22,4 L20,9 L23,12 L28,11 L28,5 L27,4 Z " transform="translate(2554,474)"/>
    <path id="dimensions-0016" d="M0,0 L7,0 L11,4 L16,0 L22,0 L22,3 L17,3 L18,5 L22,6 L25,9 L24,14 L20,16 L14,16 L13,12 L20,11 L11,8 L9,15 L7,16 L0,16 L-3,13 L-5,7 Z M2,3 L2,6 L6,5 L6,3 Z M2,9 L2,12 L7,11 L5,9 Z " transform="translate(2600,474)"/>
    <path id="dimensions-0017" d="M0,0 L7,0 L12,5 L12,12 L10,12 L8,16 L0,16 L-4,12 L-4,4 Z M1,4 L0,11 L5,12 L8,10 L7,5 Z " transform="translate(2637,474)"/>
    <path id="dimensions-0018" d="M0,0 L10,0 L14,6 L15,14 L11,15 L10,14 L8,5 L4,4 L3,15 L-1,14 L-1,2 Z " transform="translate(2652,474)"/>
    <path id="dimensions-0019" d="M0,0 L7,0 L12,5 L11,10 L9,15 L7,16 L1,16 L-3,14 L-4,12 L-4,5 Z M2,3 L1,6 L6,5 L5,3 Z M1,9 L1,12 L8,11 L5,9 Z " transform="translate(2703,474)"/>
    <path id="dimensions-0020" d="M0,0 L2,1 L3,10 L1,16 L-2,15 L-2,2 Z " transform="translate(2719,474)"/>
    <path id="dimensions-0021" d="M0,0 L11,0 L12,1 L12,18 L8,22 L3,23 L-2,21 L-2,18 L7,18 L7,16 L0,16 L-3,13 L-4,7 L-2,2 Z M1,4 L0,11 L5,12 L8,10 L7,5 L6,4 Z " transform="translate(2727,474)"/>
    <path id="dimensions-0022" d="M0,0 L8,0 L12,3 L13,7 L10,15 L8,16 L1,16 L-3,12 L-4,7 Z M4,3 L2,5 L7,6 L7,3 Z M2,9 L2,12 L8,12 L7,9 Z " transform="translate(2772,474)"/>
    <path id="dimensions-0023" d="M0,0 L7,0 L8,3 L4,5 L8,7 L9,14 L6,16 L0,16 L-2,15 L-2,12 L4,11 L0,9 L-2,7 L-1,1 Z " transform="translate(2850,474)"/>
    <path id="dimensions-0024" d="M0,0 L8,0 L12,3 L13,7 L10,15 L8,16 L1,16 L-4,10 L-3,5 Z M4,3 L2,5 L7,6 L7,3 Z M3,9 L1,11 L2,12 L8,12 L7,9 Z " transform="translate(2865,474)"/>
    <path id="dimensions-0025" d="M0,0 L6,0 L6,3 L1,3 L2,5 L6,6 L9,9 L8,14 L4,16 L-2,16 L-3,12 L4,11 L-2,8 L-3,7 L-3,2 Z " transform="translate(2883,474)"/>
    <path id="dimensions-0026" d="M0,0 L2,1 L2,6 L0,9 L-2,15 L-7,15 L-8,14 L-8,9 L-12,13 L-14,16 L-18,14 L-21,5 L-22,2 L-18,2 L-14,7 L-12,1 L-7,1 L-6,6 L-3,5 Z " transform="translate(2695,474)"/>
    <path id="dimensions-0027" d="M0,0 L9,1 L14,6 L16,9 L16,15 L10,22 L8,23 L-2,23 L-3,22 L-3,2 Z M3,4 L1,6 L1,18 L2,19 L9,18 L12,14 L11,9 L8,5 Z " transform="translate(2435,506)"/>
    <path id="dimensions-0028" d="M0,0 L3,0 L4,5 L11,7 L15,13 L15,20 L11,21 L10,20 L8,11 L5,10 L3,21 L0,21 L-1,20 L-1,1 Z " transform="translate(2508,507)"/>
    <path id="dimensions-0029" d="M0,0 L7,1 L8,4 L3,6 L2,22 L-1,22 L-2,21 L-2,5 L-7,4 L-7,1 Z " transform="translate(2563,506)"/>
    <path id="dimensions-0030" d="M0,0 L3,1 L3,11 L8,8 L12,6 L11,11 L10,15 L13,18 L13,21 L8,20 L7,18 L4,17 L3,21 L0,21 L-1,2 Z " transform="translate(2607,507)"/>
    <path id="dimensions-0031" d="M0,0 L7,1 L7,4 L3,6 L2,22 L-1,22 L-2,21 L-2,5 L-7,4 L-7,1 Z " transform="translate(2635,506)"/>
    <path id="dimensions-0032" d="M0,0 L3,0 L3,4 L1,4 L-1,10 L-1,19 L3,24 L3,28 L-1,27 L-7,19 L-7,10 L-3,3 Z " transform="translate(2703,507)"/>
    <path id="dimensions-0033" d="M0,0 L3,1 L2,3 L0,3 Z " transform="translate(2760,507)"/>
    <path id="dimensions-0034" d="M0,0 L3,1 L3,3 L0,3 Z " transform="translate(2793,507)"/>
    <path id="dimensions-0035" d="M0,0 L3,0 L4,10 L4,19 L3,21 L-1,20 L-1,2 Z " transform="translate(2799,507)"/>
    <path id="dimensions-0036" d="M0,0 L5,1 L10,8 L10,20 L7,25 L4,28 L0,27 L2,23 L4,21 L5,12 L3,6 L0,3 Z " transform="translate(2835,507)"/>
    <path id="dimensions-0037" d="M0,0 L4,3 L3,7 L3,14 L4,18 L1,19 L-2,16 L-3,8 L-4,3 Z " transform="translate(2527,510)"/>
    <path id="dimensions-0038" d="M0,0 L7,0 L12,5 L12,11 L8,16 L0,16 L-4,13 L-4,5 Z M1,4 L0,11 L5,12 L8,10 L7,5 Z " transform="translate(2457,513)"/>
    <path id="dimensions-0039" d="M0,0 L8,0 L12,1 L12,16 L10,21 L8,22 L-1,22 L-3,19 L2,18 L5,18 L6,16 L0,16 L-3,13 L-3,11 L-5,11 L-6,15 L-9,16 L-17,16 L-20,14 L-21,11 L-21,2 L-17,1 L-16,11 L-11,11 L-10,2 L-6,2 L-4,5 Z M2,4 L0,7 L1,11 L5,12 L7,11 L6,4 Z " transform="translate(2492,513)"/>
    <path id="dimensions-0040" d="M0,0 L10,0 L14,2 L16,0 L26,0 L30,5 L30,15 L27,15 L26,14 L25,5 L20,4 L18,15 L13,14 L11,16 L0,16 L-4,10 L-3,4 Z M3,4 L0,7 L1,11 L7,12 L8,11 L8,5 Z " transform="translate(2574,513)"/>
    <path id="dimensions-0041" d="M0,0 L7,0 L8,3 L4,4 L3,13 L2,15 L-2,14 L-2,2 Z " transform="translate(2644,513)"/>
    <path id="dimensions-0042" d="M0,0 L11,0 L12,1 L12,15 L11,16 L0,16 L-4,12 L-4,4 Z M1,4 L0,11 L5,12 L8,10 L7,5 L6,4 Z " transform="translate(2658,513)"/>
    <path id="dimensions-0043" d="M0,0 L11,0 L14,3 L15,10 L12,15 L11,16 L3,17 L1,22 L-1,22 L-2,15 L-1,1 Z M5,4 L3,6 L3,11 L9,12 L11,8 L9,4 Z " transform="translate(2674,513)"/>
    <path id="dimensions-0044" d="M0,0 L7,0 L11,3 L12,11 L7,16 L-1,16 L-5,11 L-5,5 Z M1,4 L-1,9 L2,12 L7,11 L7,5 L6,4 Z " transform="translate(2713,513)"/>
    <path id="dimensions-0045" d="M0,0 L7,0 L8,3 L4,4 L3,13 L2,15 L-2,14 L-2,6 Z " transform="translate(2728,513)"/>
    <path id="dimensions-0046" d="M0,0 L6,0 L6,3 L1,3 L2,5 L6,6 L9,9 L8,14 L4,16 L-2,16 L-3,12 L4,11 L-2,8 L-4,4 Z " transform="translate(2748,513)"/>
    <path id="dimensions-0047" d="M0,0 L2,1 L3,13 L0,16 L-2,14 L-2,2 Z " transform="translate(2761,513)"/>
    <path id="dimensions-0048" d="M0,0 L19,0 L23,4 L23,15 L21,16 L19,15 L19,4 L14,4 L13,13 L12,15 L8,14 L7,4 L4,4 L2,15 L-1,15 L-2,8 L-2,2 Z " transform="translate(2767,513)"/>
    <path id="dimensions-0049" d="M0,0 L10,0 L13,2 L13,14 L11,16 L0,16 L-4,10 L-3,5 Z M3,4 L0,7 L1,11 L7,12 L8,11 L8,5 Z " transform="translate(2808,513)"/>
    <path id="dimensions-0050" d="M0,0 L6,0 L6,3 L3,8 L1,15 L-2,15 L-3,12 L-2,1 Z " transform="translate(2826,513)"/>
    <path id="dimensions-0051" d="M0,0 L3,0 L4,6 L8,6 L9,1 L13,1 L11,8 L6,20 L2,20 L2,11 L-1,5 Z " transform="translate(2535,514)"/>
    <path id="dimensions-0052" d="M0,0 L3,0 L4,3 L4,13 L0,14 Z " transform="translate(2793,514)"/>
    <path id="dimensions-0053" d="M0,0 L10,0 L12,4 L11,10 L4,16 L4,17 L12,18 L12,21 L10,22 L-1,22 L-2,21 L-2,16 L3,11 L7,7 L7,5 L0,5 L-1,1 Z " transform="translate(2434,546)"/>
    <path id="dimensions-0054" d="M0,0 L4,1 L6,18 L3,21 L0,21 L-1,19 L-8,17 L-9,13 L-2,3 Z M-2,10 L-1,13 L0,10 Z " transform="translate(2463,546)"/>
    <path id="dimensions-0055" d="M0,0 L3,0 L3,4 L1,4 L-1,10 L-1,19 L3,24 L3,28 L-1,27 L-7,19 L-7,10 L-3,3 Z " transform="translate(2532,546)"/>
    <path id="dimensions-0056" d="M0,0 L8,0 L11,3 L11,19 L7,22 L0,22 L-4,16 L-2,2 Z M3,3 L2,7 L6,8 L7,4 Z M2,13 L1,17 L6,18 L7,13 Z " transform="translate(2542,546)"/>
    <path id="dimensions-0057" d="M0,0 L5,1 L4,5 L8,6 L9,3 L12,3 L15,8 L13,11 L13,17 L15,21 L12,22 L8,19 L7,10 L4,10 L3,20 L-1,21 L-2,17 L-2,11 L-4,7 L-1,3 Z " transform="translate(2565,546)"/>
    <path id="dimensions-0058" d="M0,0 L5,1 L10,8 L10,20 L7,25 L4,28 L0,27 L2,23 L4,21 L5,12 L3,6 L0,3 Z " transform="translate(2583,546)"/>
    <path id="dimensions-0059" d="M0,0 L8,0 L12,4 L11,12 L12,13 L12,18 L7,22 L1,22 L-3,19 L-4,13 L-3,8 L-4,6 L-1,1 Z M1,4 L1,7 L6,8 L8,5 L7,4 Z M1,13 L0,17 L1,18 L7,18 L8,14 L7,13 Z " transform="translate(2700,546)"/>
    <path id="dimensions-0060" d="M0,0 L3,0 L3,21 L1,22 L-1,21 L-1,13 L-9,13 L-9,19 L-10,21 L-16,20 L-21,21 L-22,10 L-26,11 L-27,21 L-31,21 L-33,11 L-37,11 L-39,21 L-43,20 L-43,9 L-41,6 L-21,6 L-17,11 L-16,16 L-15,14 L-14,2 L-10,1 L-9,4 L-10,8 L-2,8 L-1,1 Z " transform="translate(2514,546)"/>
    <path id="dimensions-0061" d="M0,0 L11,0 L14,3 L15,10 L12,15 L11,16 L3,17 L1,22 L-1,22 L-2,20 L-2,3 Z M5,4 L3,6 L3,11 L9,12 L11,8 L9,4 Z " transform="translate(2602,552)"/>
    <path id="dimensions-0062" d="M0,0 L4,0 L5,10 L10,5 L17,5 L22,11 L20,17 L19,20 L17,21 L10,21 L5,16 L3,20 L-1,18 L-1,16 L-7,21 L-15,21 L-19,15 L-18,9 L-14,5 L-7,5 L-1,10 Z M12,8 L12,11 L16,10 L16,8 Z M-12,9 L-14,11 L-13,16 L-9,17 L-7,15 L-8,9 Z M12,14 L12,17 L17,16 L15,14 Z " transform="translate(2638,547)"/>
    <path id="dimensions-0063" d="M0,0 L7,0 L8,3 L4,5 L8,7 L9,14 L6,16 L-1,16 L-2,12 L4,11 L0,9 L-2,7 L-1,1 Z " transform="translate(2664,552)"/>
    <path id="dimensions-0064" d="M0,0 L4,2 L8,2 L13,1 L11,6 L12,11 L13,15 L8,14 L4,13 L4,15 L1,16 L-1,13 L2,10 L1,5 Z " transform="translate(2682,552)"/>
    <path id="dimensions-0065" d="M0,0 L3,1 L4,6 L4,16 L11,19 L10,21 L7,22 L-5,22 L-6,18 L-1,16 L-2,8 L-4,6 L-3,2 Z " transform="translate(2438,582)"/>
    <path id="dimensions-0066" d="M0,0 L9,0 L12,3 L12,9 L5,15 L4,18 L12,18 L11,22 L-1,22 L-6,20 L-1,15 L7,8 L8,4 L0,4 L-1,2 Z " transform="translate(2457,582)"/>
    <path id="dimensions-0067" d="M0,0 L3,0 L3,4 L1,4 L-1,10 L-1,19 L3,24 L3,28 L-1,27 L-7,19 L-7,10 L-3,3 Z " transform="translate(2532,582)"/>
    <path id="dimensions-0068" d="M0,0 L4,1 L6,18 L4,21 L0,21 L-1,19 L-8,17 L-9,13 L-2,3 Z M-2,10 L-1,13 L0,10 Z " transform="translate(2547,582)"/>
    <path id="dimensions-0069" d="M0,0 L5,1 L4,5 L8,6 L9,3 L12,3 L15,8 L13,11 L13,17 L15,21 L12,22 L8,19 L7,10 L4,10 L3,20 L-1,21 L-2,17 L-2,11 L-4,7 L-1,3 Z " transform="translate(2565,582)"/>
    <path id="dimensions-0070" d="M0,0 L5,1 L10,8 L10,20 L7,25 L4,28 L0,27 L2,23 L4,21 L5,12 L3,6 L0,3 Z " transform="translate(2583,582)"/>
    <path id="dimensions-0071" d="M0,0 L8,0 L12,4 L11,12 L12,13 L12,18 L7,22 L1,22 L-3,19 L-4,13 L-3,8 L-4,6 L-1,1 Z M1,4 L1,7 L6,8 L8,5 L7,4 Z M1,13 L0,17 L1,18 L7,18 L8,14 L7,13 Z " transform="translate(2700,582)"/>
    <path id="dimensions-0072" d="M0,0 L4,1 L5,3 L138,3 L163,4 L162,8 L131,9 L109,14 L95,17 L85,19 L73,21 L67,23 L57,25 L45,27 L38,29 L17,33 L-8,39 L-16,41 L-26,42 L-29,44 L-42,46 L-60,50 L-70,52 L-82,54 L-88,56 L-98,58 L-113,61 L-141,67 L-169,73 L-197,79 L-209,81 L-215,83 L-225,85 L-237,87 L-244,89 L-265,93 L-286,98 L-307,102 L-328,107 L-349,111 L-356,113 L-366,115 L-378,117 L-384,119 L-394,121 L-409,124 L-437,130 L-465,136 L-493,142 L-511,146 L-521,148 L-533,150 L-539,152 L-549,154 L-561,156 L-568,158 L-576,158 L-578,163 L-585,164 L-593,164 L-595,162 L-594,157 L-586,154 L-579,152 L-578,153 L-570,153 L-556,150 L-542,147 L-528,144 L-514,141 L-507,139 L-495,137 L-478,133 L-453,128 L-436,124 L-411,119 L-396,116 L-386,114 L-380,112 L-368,110 L-359,108 L-352,106 L-340,104 L-323,100 L-298,95 L-281,91 L-255,86 L-245,84 L-239,82 L-227,80 L-218,78 L-204,75 L-197,73 L-185,71 L-168,67 L-143,62 L-126,58 L-100,53 L-91,51 L-77,48 L-70,46 L-58,44 L-48,42 L-30,37 L-16,35 L-11,33 L-2,32 L15,28 L40,23 L55,20 L64,18 L78,15 L106,9 L101,8 L6,8 L3,11 L-4,10 L-13,8 L-14,5 L-10,2 Z " transform="translate(2264,587)"/>
    <path id="dimensions-0073" d="M0,0 L3,0 L3,21 L1,22 L-1,21 L-1,13 L-9,13 L-9,19 L-10,21 L-16,20 L-21,21 L-22,10 L-26,11 L-27,21 L-31,21 L-33,11 L-37,11 L-39,21 L-43,20 L-43,10 L-41,6 L-21,6 L-17,11 L-16,16 L-15,14 L-14,2 L-10,1 L-9,4 L-10,8 L-2,8 L-1,1 Z " transform="translate(2514,582)"/>
    <path id="dimensions-0074" d="M0,0 L11,0 L14,3 L15,10 L12,15 L11,16 L3,17 L1,22 L-1,22 L-2,20 L-2,3 Z M5,4 L3,6 L3,11 L9,12 L11,8 L9,4 Z " transform="translate(2602,588)"/>
    <path id="dimensions-0075" d="M0,0 L4,0 L5,10 L10,5 L17,5 L22,11 L20,17 L19,20 L17,21 L10,21 L5,16 L3,20 L-1,18 L-1,16 L-7,21 L-15,21 L-19,15 L-18,9 L-14,5 L-7,5 L-1,10 Z M12,8 L12,11 L16,10 L16,8 Z M-12,9 L-14,11 L-13,16 L-9,17 L-7,15 L-8,9 Z M12,14 L12,17 L17,16 L15,14 Z " transform="translate(2638,583)"/>
    <path id="dimensions-0076" d="M0,0 L7,0 L8,3 L4,5 L8,7 L9,14 L6,16 L-1,16 L-2,12 L4,11 L0,9 L-2,7 L-1,1 Z " transform="translate(2664,588)"/>
    <path id="dimensions-0077" d="M0,0 L4,2 L8,2 L13,1 L11,6 L12,11 L13,15 L8,14 L4,13 L4,15 L1,16 L-1,13 L2,10 L1,5 Z " transform="translate(2682,588)"/>
  </g>
  <g id="layer-accents" fill="#e22020">
    <path id="accents-0001" d="M0,0 L5,0 L9,0 L29,1 L30,2 L30,24 L28,26 L7,26 L1,27 L-1,26 L0,21 L16,21 L17,5 L-1,5 Z M22,5 L21,6 L21,21 L25,22 L26,21 L26,6 Z " transform="translate(2295,1013)"/>
    <path id="accents-0002" d="M0,0 L7,1 L19,1 L25,3 L25,25 L19,28 L-13,28 L-14,27 L-14,3 L-13,2 L-2,1 Z M-6,6 L-8,8 L-8,21 L-6,23 L-3,23 L-2,21 L-2,7 Z M7,6 L5,7 L5,21 L14,24 L23,21 L24,20 L24,9 L21,6 Z " transform="translate(1813,1017)"/>
  </g>
</svg>
